<svg id="universelogo" xmlns="http://www.w3.org/2000/svg" width="361.834" height="361.834" viewBox="0 0 361.834 361.834">
  <g id="universelogo-2" data-name="universelogo" transform="translate(433.76 -88.653) rotate(89)">
    <circle id="Ellipse_43" data-name="Ellipse 43" cx="174.817" cy="174.817" r="174.817" transform="matrix(-0.017, 1, -1, -0.017, 442.957, 85.769)" fill="#6c7fd8"/>
    <g id="Group_2" data-name="Group 2" transform="translate(262.939 120.318)">
      <path id="Path_3" data-name="Path 3" d="M4.8,276.775a4.8,4.8,0,1,1,0-9.6A131.22,131.22,0,0,0,135.871,136.121,131.275,131.275,0,0,0,38.644,9.474,4.8,4.8,0,1,1,41.123.206,140.884,140.884,0,0,1,145.467,136.121,140.828,140.828,0,0,1,4.8,276.775Z" transform="translate(0 0)" fill="#4f66d0"/>
    </g>
    <g id="Group_3" data-name="Group 3" transform="translate(127.147 120.359)">
      <path id="Path_4" data-name="Path 4" d="M4.855,8.867a.613.613,0,0,1-.613-.432A25.037,25.037,0,0,0,0,0,140.16,140.16,0,0,0,9.136,45.415a13.026,13.026,0,0,1,8.839-3.733A130.565,130.565,0,0,1,9.611.126,25.319,25.319,0,0,0,5.459,8.435a.613.613,0,0,1-.6.432Z" transform="translate(0 140.582)" fill="#4f66d0"/>
      <path id="Path_5" data-name="Path 5" d="M109.91,3.557A4.8,4.8,0,0,0,104.034.164,140.911,140.911,0,0,0,0,126.774a25.727,25.727,0,0,0,4.018-8.137.638.638,0,0,1,1.208,0,24.712,24.712,0,0,0,4.364,8.582A131.3,131.3,0,0,1,106.514,9.432a4.8,4.8,0,0,0,3.4-5.875Z" transform="translate(0.233 0)" fill="#4f66d0"/>
      <path id="Path_6" data-name="Path 6" d="M45.514,39.779A131.621,131.621,0,0,1,8.413,0,13.063,13.063,0,0,1,0,4.637,141.224,141.224,0,0,0,40,47.631a4.8,4.8,0,1,0,5.517-7.852Z" transform="translate(19.952 203.639)" fill="#4f66d0"/>
    </g>
    <g id="Group_4" data-name="Group 4" transform="translate(156.954 145.555)">
      <path id="Path_7" data-name="Path 7" d="M6.329,27.142A101.08,101.08,0,0,1,90,13.206a4.8,4.8,0,1,0,2.559-9.253A110.682,110.682,0,0,0,0,19.851a13.127,13.127,0,0,1,6.329,7.291Z" transform="translate(47.573 0)" fill="#6c7fd8"/>
      <path id="Path_8" data-name="Path 8" d="M9.828,36.731A27.421,27.421,0,0,0,14.214,27.8a.641.641,0,0,1,1.226,0,28.727,28.727,0,0,0,4.021,8.471A110.912,110.912,0,0,0,9.1,2.678,4.8,4.8,0,1,0,.5,6.919,101.334,101.334,0,0,1,9.828,36.731Z" transform="translate(201.109 59.242)" fill="#6c7fd8"/>
      <path id="Path_9" data-name="Path 9" d="M50.693,156.662A101.273,101.273,0,0,1,35.58,7.291,13.13,13.13,0,0,1,29.245,0,111.065,111.065,0,0,0,45.525,164.771a15.392,15.392,0,0,1,5.167-8.11Z" transform="translate(0 35.77)" fill="#6c7fd8"/>
      <path id="Path_10" data-name="Path 10" d="M99.725,0A101.555,101.555,0,0,1,39,20.262a101.1,101.1,0,0,1-26.766-3.62q-4.233-1.162-8.306-2.67A15.306,15.306,0,0,1,0,22.751Q4.748,24.519,9.7,25.9A110.6,110.6,0,0,0,39,29.858,111.222,111.222,0,0,0,107.256,6.317,16.964,16.964,0,0,0,99.725,0Z" transform="translate(71.752 191.898)" fill="#6c7fd8"/>
      <path id="Path_11" data-name="Path 11" d="M30.679,9.752a.641.641,0,0,1-1.226,0,32.037,32.037,0,0,0-3.276-7.4,101.034,101.034,0,0,1-3.592,25.463A100.672,100.672,0,0,1,0,68.96a16.52,16.52,0,0,0,6.544,7.065,110.189,110.189,0,0,0,25.3-45.682A110.643,110.643,0,0,0,35.776,0a25.322,25.322,0,0,0-5.1,9.752Z" transform="translate(185.863 109.851)" fill="#6c7fd8"/>
    </g>
    <g id="Group_5" data-name="Group 5" transform="translate(186.661 175.351)">
      <path id="Path_12" data-name="Path 12" d="M67.527,0A13.145,13.145,0,0,1,60.72,6.838,71.13,71.13,0,0,1,76.28,51.306,71.562,71.562,0,0,1,4.8,122.785a4.8,4.8,0,0,0,0,9.6A81.167,81.167,0,0,0,85.876,51.306,80.7,80.7,0,0,0,67.527,0Z" transform="translate(76.277 29.769)" fill="#8795de"/>
      <path id="Path_13" data-name="Path 13" d="M119.313,20.709a13.133,13.133,0,0,1,6.09-7.484A81.036,81.036,0,0,0,0,81.075a4.8,4.8,0,0,0,9.6,0A71.449,71.449,0,0,1,119.319,20.7Z" transform="translate(0 0)" fill="#8795de"/>
    </g>
    <g id="Group_6" data-name="Group 6" transform="translate(222.766 211.456)">
      <circle id="Ellipse_2" data-name="Ellipse 2" cx="44.971" cy="44.971" r="44.971" transform="translate(0 0)" fill="#fea613"/>
    </g>
    <path id="Path_14" data-name="Path 14" d="M30.4,72.354A15.989,15.989,0,0,1,21.21,41.806,44.983,44.983,0,0,1,55.521,1.258a44.971,44.971,0,1,0,0,87.432A45,45,0,0,1,30.4,72.354Z" transform="translate(222.759 211.455)" fill="#fe9901"/>
    <g id="Group_7" data-name="Group 7" transform="translate(304.736 186.259)">
      <circle id="Ellipse_3" data-name="Ellipse 3" cx="13.715" cy="13.715" r="13.715" transform="translate(0 0)" fill="#97d729"/>
    </g>
    <g id="Group_8" data-name="Group 8" transform="translate(304.731 186.255)">
      <path id="Path_15" data-name="Path 15" d="M10.511,13.72A13.716,13.716,0,0,1,18.974,1.049a13.715,13.715,0,1,0,0,25.335A13.715,13.715,0,0,1,10.511,13.72Z" transform="translate(0 0)" fill="#8bc727"/>
    </g>
    <g id="Group_9" data-name="Group 9" transform="translate(131.72 301.965)">
      <circle id="Ellipse_4" data-name="Ellipse 4" cx="13.715" cy="13.715" r="13.715" transform="translate(0 0)" fill="#97d729"/>
    </g>
    <g id="Group_10" data-name="Group 10" transform="translate(131.717 301.962)">
      <path id="Path_16" data-name="Path 16" d="M10.8,13.718A13.715,13.715,0,0,1,19.116,1.109a13.715,13.715,0,1,0,0,25.215A13.715,13.715,0,0,1,10.8,13.718Z" transform="translate(0 0)" fill="#8bc727"/>
    </g>
    <g id="Group_11" data-name="Group 11" transform="translate(245.412 92.697)">
      <circle id="Ellipse_5" data-name="Ellipse 5" cx="22.328" cy="22.328" r="22.328" transform="translate(0 0)" fill="#925cb4"/>
    </g>
    <g id="Group_12" data-name="Group 12" transform="translate(245.423 92.694)">
      <path id="Path_17" data-name="Path 17" d="M17.361,22.331A22.334,22.334,0,0,1,31,1.756,22.328,22.328,0,1,0,31,42.9,22.334,22.334,0,0,1,17.364,22.328Z" transform="translate(0 0)" fill="#814ba2"/>
    </g>
    <g id="Group_13" data-name="Group 13" transform="translate(200.977 333.067)">
      <circle id="Ellipse_6" data-name="Ellipse 6" cx="16.507" cy="16.507" r="16.507" transform="translate(0 0)" fill="#fed402"/>
    </g>
    <g id="Group_14" data-name="Group 14" transform="translate(201.371 333.87)">
      <path id="Path_18" data-name="Path 18" d="M12.795,16a16,16,0,0,1,9.594-14.66,15.993,15.993,0,1,0,0,29.316A16,16,0,0,1,12.795,16Z" transform="translate(0 0)" fill="#fac600"/>
    </g>
    <g id="Group_15" data-name="Group 15" transform="translate(264.062 228.493)">
      <circle id="Ellipse_7" data-name="Ellipse 7" cx="17.185" cy="17.185" r="17.185" transform="translate(0 0)" fill="#fed402"/>
    </g>
    <g id="Group_16" data-name="Group 16" transform="translate(233.646 252.218)">
      <circle id="Ellipse_8" data-name="Ellipse 8" cx="15.993" cy="15.993" r="15.993" transform="translate(0 0)" fill="#fb8801"/>
    </g>
    <g id="Group_17" data-name="Group 17" transform="translate(184.813 163.294)">
      <circle id="Ellipse_9" data-name="Ellipse 9" cx="13.715" cy="13.715" r="13.715" transform="translate(0 0)" fill="#fd4755"/>
    </g>
    <g id="Group_18" data-name="Group 18" transform="translate(184.8 163.296)">
      <path id="Path_19" data-name="Path 19" d="M10.253,13.713A13.712,13.712,0,0,1,18.847,1a13.715,13.715,0,1,0,0,25.439,13.709,13.709,0,0,1-8.594-12.722Z" transform="translate(0 0)" fill="#fb2b3a"/>
    </g>
    <g id="Group_19" data-name="Group 19" transform="translate(358.041 122.066)">
      <path id="Path_20" data-name="Path 20" d="M33.866,18.606c-9.044,2.951-12.312,6.216-15.26,15.26a1.281,1.281,0,0,1-2.452,0c-2.936-9.044-6.2-12.309-15.245-15.26a1.281,1.281,0,0,1,0-2.452c9.044-2.936,12.309-6.2,15.26-15.245a1.281,1.281,0,0,1,2.452,0c2.951,9.044,6.216,12.312,15.26,15.26a1.281,1.281,0,0,1-.015,2.437Z" transform="translate(0 0)" fill="#fea613"/>
    </g>
    <g id="Group_20" data-name="Group 20" transform="translate(358.041 134.196)">
      <path id="Path_21" data-name="Path 21" d="M9.316,0A27.541,27.541,0,0,1,.909,4.04a1.281,1.281,0,0,0,0,2.452c9.044,2.951,12.312,6.216,15.26,15.26a1.281,1.281,0,0,0,2.452,0,27.746,27.746,0,0,1,3.984-8.343A18.644,18.644,0,0,0,9.316,0Z" transform="translate(0)" fill="#fe9901"/>
    </g>
    <g id="Group_21" data-name="Group 21" transform="translate(192.884 278.158)">
      <path id="Path_22" data-name="Path 22" d="M33.866,18.606c-9.044,2.951-12.312,6.216-15.26,15.26a1.281,1.281,0,0,1-2.452,0c-2.936-9.044-6.2-12.309-15.245-15.26a1.281,1.281,0,0,1,0-2.452c9.044-2.936,12.309-6.2,15.26-15.245a1.281,1.281,0,0,1,2.452,0c2.951,9.044,6.216,12.312,15.26,15.26a1.281,1.281,0,0,1-.015,2.437Z" transform="translate(0 0)" fill="#fea613"/>
    </g>
    <g id="Group_22" data-name="Group 22" transform="translate(192.884 290.26)">
      <path id="Path_23" data-name="Path 23" d="M9.35,0A27.446,27.446,0,0,1,.909,4.064a1.281,1.281,0,0,0,0,2.452c9.044,2.936,12.309,6.2,15.26,15.245a1.281,1.281,0,0,0,2.452,0,27.449,27.449,0,0,1,4.052-8.441A18.634,18.634,0,0,0,9.35,0Z" transform="translate(0)" fill="#fe9901"/>
    </g>
    <g id="Group_23" data-name="Group 23" transform="translate(355.501 231.486)">
      <path id="Path_24" data-name="Path 24" d="M33.866,18.606c-9.044,2.951-12.309,6.216-15.26,15.26a1.281,1.281,0,0,1-2.452,0c-2.936-9.044-6.2-12.309-15.245-15.26a1.281,1.281,0,0,1,0-2.452c9.044-2.936,12.309-6.2,15.26-15.245a1.281,1.281,0,0,1,2.452,0c2.951,9.044,6.216,12.312,15.26,15.26a1.281,1.281,0,0,1-.015,2.437Z" transform="translate(0 0)" fill="#fea613"/>
    </g>
    <g id="Group_24" data-name="Group 24" transform="translate(355.501 231.486)">
      <path id="Path_25" data-name="Path 25" d="M33.866,18.606c-9.044,2.951-12.309,6.216-15.26,15.26a1.281,1.281,0,0,1-2.452,0c-2.936-9.044-6.2-12.309-15.245-15.26a1.281,1.281,0,0,1,0-2.452c9.044-2.936,12.309-6.2,15.26-15.245a1.281,1.281,0,0,1,2.452,0c2.951,9.044,6.216,12.312,15.26,15.26a1.281,1.281,0,0,1-.015,2.437Z" transform="translate(0 0)" fill="#fea613"/>
    </g>
    <g id="Group_25" data-name="Group 25" transform="translate(355.501 243.6)">
      <path id="Path_26" data-name="Path 26" d="M9.338,0A27.48,27.48,0,0,1,.909,4.055a1.281,1.281,0,0,0,0,2.452c9.044,2.936,12.309,6.2,15.26,15.254a1.281,1.281,0,0,0,2.452,0,27.774,27.774,0,0,1,3.984-8.336A18.641,18.641,0,0,0,9.338,0Z" transform="translate(0)" fill="#fe9901"/>
    </g>
    <g id="Group_26" data-name="Group 26" transform="translate(115.74 237.918)">
      <path id="Path_27" data-name="Path 27" d="M31.651,17.475C23.293,20.234,20.228,23.3,17.469,31.657a1.278,1.278,0,0,1-2.424,0C12.3,23.3,9.219,20.234.873,17.475a1.278,1.278,0,0,1,0-2.424C9.219,12.293,12.3,9.228,15.051.873a1.278,1.278,0,0,1,2.424,0C20.234,9.219,23.3,12.3,31.654,15.051a1.278,1.278,0,0,1,0,2.424Z" transform="translate(0 0)" fill="#fea613"/>
    </g>
    <g id="Group_27" data-name="Group 27" transform="translate(115.74 248.884)">
      <path id="Path_28" data-name="Path 28" d="M9.059,0A24.562,24.562,0,0,1,.873,4.092a1.278,1.278,0,0,0,0,2.424C9.219,9.274,12.3,12.339,15.051,20.694a1.278,1.278,0,0,0,2.424,0A24.568,24.568,0,0,1,21.564,12.5,17.574,17.574,0,0,0,9.059,0Z" transform="translate(0)" fill="#fe9901"/>
    </g>
    <g id="Group_28" data-name="Group 28" transform="translate(229.663 371.981)">
      <path id="Path_29" data-name="Path 29" d="M21.658,12.463a12.906,12.906,0,0,0-9.195,9.195,1.281,1.281,0,0,1-2.415,0A12.906,12.906,0,0,0,.853,12.463a1.281,1.281,0,0,1,0-2.415A12.906,12.906,0,0,0,10.048.853a1.281,1.281,0,0,1,2.415,0,12.906,12.906,0,0,0,9.195,9.195,1.281,1.281,0,0,1,0,2.415Z" transform="translate(0 0)" fill="#fff"/>
    </g>
    <g id="Group_29" data-name="Group 29" transform="translate(229.679 379.522)">
      <path id="Path_30" data-name="Path 30" d="M14.943,9.195A12.906,12.906,0,0,0,5.748,0H5.72A17.084,17.084,0,0,1,.853,2.507a1.281,1.281,0,0,0,0,2.415,12.906,12.906,0,0,1,9.195,9.195,1.281,1.281,0,0,0,2.415,0A17.081,17.081,0,0,1,14.97,9.25.212.212,0,0,1,14.943,9.195Z" transform="translate(0)" fill="#f3f0f3"/>
    </g>
    <g id="Group_30" data-name="Group 30" transform="translate(329.462 165.141)">
      <path id="Path_31" data-name="Path 31" d="M21.658,12.463a12.906,12.906,0,0,0-9.195,9.195,1.281,1.281,0,0,1-2.415,0A12.906,12.906,0,0,0,.853,12.463a1.281,1.281,0,0,1,0-2.415A12.906,12.906,0,0,0,10.048.853a1.281,1.281,0,0,1,2.415,0,12.906,12.906,0,0,0,9.195,9.195,1.281,1.281,0,0,1,0,2.415Z" transform="translate(0 0)" fill="#fff"/>
    </g>
    <g id="Group_32" data-name="Group 32" transform="translate(329.474 173.037)">
      <g id="Group_31" data-name="Group 31" transform="translate(0 0)">
        <path id="Path_32" data-name="Path 32" d="M5.493.138A1.312,1.312,0,0,1,5.239,0,18.236,18.236,0,0,1,.853,2.145a1.281,1.281,0,0,0,0,2.415,12.906,12.906,0,0,1,9.195,9.195,1.281,1.281,0,0,0,2.415,0A18.037,18.037,0,0,1,14.67,9.287,12.894,12.894,0,0,0,5.493.138Z" fill="#f3f0f3"/>
      </g>
    </g>
    <g id="Group_33" data-name="Group 33" transform="translate(198.174 387.705)">
      <path id="Path_33" data-name="Path 33" d="M31.651,17.475C23.293,20.234,20.228,23.3,17.469,31.657a1.278,1.278,0,0,1-2.424,0C12.3,23.3,9.219,20.234.873,17.475a1.278,1.278,0,0,1,0-2.424C9.219,12.293,12.3,9.228,15.051.873a1.278,1.278,0,0,1,2.424,0C20.234,9.219,23.3,12.3,31.654,15.051a1.278,1.278,0,0,1,0,2.424Z" transform="translate(0 0)" fill="#fea613"/>
    </g>
    <g id="Group_34" data-name="Group 34" transform="translate(198.174 398.585)">
      <path id="Path_34" data-name="Path 34" d="M9.17,0a24.311,24.311,0,0,1-8.3,4.177,1.278,1.278,0,0,0,0,2.424C9.219,9.36,12.3,12.425,15.051,20.78a1.278,1.278,0,0,0,2.424,0,24.308,24.308,0,0,1,4.174-8.3A17.562,17.562,0,0,0,9.17,0Z" transform="translate(0)" fill="#fe9901"/>
    </g>
    <g id="Group_35" data-name="Group 35" transform="translate(322.532 317.6)">
      <path id="Path_35" data-name="Path 35" d="M33.866,18.606c-9.044,2.951-12.312,6.216-15.26,15.26a1.281,1.281,0,0,1-2.452,0c-2.936-9.044-6.2-12.309-15.245-15.26a1.281,1.281,0,0,1,0-2.452c9.044-2.936,12.309-6.2,15.26-15.245a1.281,1.281,0,0,1,2.452,0c2.951,9.044,6.216,12.312,15.26,15.26a1.281,1.281,0,0,1-.015,2.437Z" transform="translate(0 0)" fill="#fff"/>
    </g>
    <g id="Group_36" data-name="Group 36" transform="translate(322.532 329.782)">
      <path id="Path_36" data-name="Path 36" d="M9.252,0A27.737,27.737,0,0,1,.909,3.984a1.281,1.281,0,0,0,0,2.452c9.044,2.951,12.309,6.216,15.26,15.26a1.281,1.281,0,0,0,2.452,0,28.117,28.117,0,0,1,3.88-8.232A18.656,18.656,0,0,0,9.252,0Z" transform="translate(0 0)" fill="#f3f0f3"/>
    </g>
    <g id="Group_37" data-name="Group 37" transform="translate(255.836 267.43)">
      <circle id="Ellipse_10" data-name="Ellipse 10" cx="9.507" cy="9.507" r="9.507" transform="translate(0 0)" fill="#fed402"/>
    </g>
    <g id="Group_38" data-name="Group 38" transform="translate(188.515 271.12)">
      <path id="Path_37" data-name="Path 37" d="M9.351,5.41,5.413,9.351a.858.858,0,0,1-1.226,0L.258,5.41a.858.858,0,0,1,0-1.226L4.2.258a.858.858,0,0,1,1.226,0L9.351,4.2a.858.858,0,0,1,0,1.214Z" transform="translate(0 0)" fill="#fed402"/>
    </g>
    <g id="Group_39" data-name="Group 39" transform="translate(229.511 306.997)">
      <path id="Path_38" data-name="Path 38" d="M9.351,5.413,5.413,9.351a.858.858,0,0,1-1.226,0L.258,5.413a.858.858,0,0,1,0-1.226L4.2.258a.858.858,0,0,1,1.226,0L9.351,4.2a.858.858,0,0,1,0,1.217Z" transform="translate(0 0)" fill="#fed402"/>
    </g>
    <g id="Group_40" data-name="Group 40" transform="translate(354.258 186.731)">
      <path id="Path_39" data-name="Path 39" d="M9.351,5.413,5.413,9.351a.858.858,0,0,1-1.226,0L.258,5.413a.858.858,0,0,1,0-1.226L4.2.258a.858.858,0,0,1,1.226,0L9.351,4.2a.858.858,0,0,1,0,1.217Z" transform="translate(0 0)" fill="#fed402"/>
    </g>
    <g id="Group_41" data-name="Group 41" transform="translate(312.677 159.221)">
      <path id="Path_40" data-name="Path 40" d="M9.351,5.413,5.413,9.351a.858.858,0,0,1-1.226,0L.258,5.413a.858.858,0,0,1,0-1.226L4.2.258a.858.858,0,0,1,1.226,0L9.351,4.2a.858.858,0,0,1,0,1.217Z" transform="translate(0 0)" fill="#fed402"/>
    </g>
    <g id="Group_42" data-name="Group 42" transform="translate(239.107 324.908)">
      <path id="Path_41" data-name="Path 41" d="M9.351,5.413,5.413,9.351a.858.858,0,0,1-1.226,0L.258,5.413a.858.858,0,0,1,0-1.226L4.2.258a.858.858,0,0,1,1.226,0L9.351,4.2a.858.858,0,0,1,0,1.217Z" transform="translate(0 0)" fill="#fff"/>
    </g>
  </g>
</svg>
