<svg id="Capa_1" enable-background="new 0 0 512 512" height="512" viewBox="0 0 512 512" width="512" xmlns="http://www.w3.org/2000/svg"><g><g><g><circle cx="256" cy="267" fill="#4f66d0" r="245"/></g></g><circle cx="256" cy="267" fill="#314dc9" r="199"/><circle cx="256" cy="267" fill="#6c7fd8" r="199"/><circle cx="256" cy="267" fill="#8795de" r="178"/><circle cx="256" cy="267" fill="#f3f0f3" r="159"/><path d="m185.996 337.004c-54.84-54.84-61.235-139.769-19.206-201.64-8.183 5.559-15.967 11.953-23.22 19.206-62.093 62.093-62.093 162.767 0 224.86s162.767 62.093 224.86 0c7.253-7.253 13.647-15.038 19.206-23.22-61.871 42.028-146.799 35.634-201.64-19.206z" fill="#e2dee2"/><ellipse cx="150.167" cy="253.408" fill="#e2dee2" rx="22.546" ry="30.546" transform="matrix(.728 -.686 .686 .728 -132.922 172.008)"/><path d="m145.081 258.202c-9.031-9.581-12.252-21.963-8.925-30.998-2.593.784-4.952 2.101-6.941 3.976-9.061 8.541-7.026 25.416 4.546 37.692 11.571 12.276 28.297 15.304 37.358 6.763 1.989-1.875 3.443-4.152 4.379-6.694-9.216 2.789-21.386-1.158-30.417-10.739z" fill="#cbc4cc"/><ellipse cx="313.245" cy="348.362" fill="#e2dee2" rx="18.895" ry="25.6" transform="matrix(.728 -.686 .686 .728 -153.644 309.722)"/><path d="m307.126 354.13c-8.006-8.494-10.559-19.612-6.934-27.26-1.658.669-3.181 1.616-4.505 2.864-7.594 7.158-5.888 21.301 3.809 31.589 9.698 10.288 23.715 12.826 31.309 5.668 1.324-1.248 2.359-2.713 3.125-4.328-7.85 3.165-18.797-.039-26.804-8.533z" fill="#cbc4cc"/><ellipse cx="188.569" cy="341.255" fill="#cbc4cc" rx="32.057" ry="43.431" transform="matrix(.728 -.686 .686 .728 -182.721 222.27)"/><path d="m172.958 350.81c-12.116-12.854-16.868-29.25-13.391-41.853-.264.228-.532.452-.787.693-12.883 12.144-9.99 36.138 6.463 53.592 16.453 17.455 40.234 21.76 53.117 9.616 3.396-3.201 5.684-7.229 6.928-11.74-13.045 11.265-36.205 6.801-52.33-10.308z" fill="#b5adb6"/><ellipse cx="250.847" cy="265.061" fill="#e2dee2" rx="32.057" ry="43.431" transform="matrix(.728 -.686 .686 .728 -113.499 244.239)"/><path d="m286.614 285.838c-12.883 12.144-36.665 7.838-53.117-9.617-12.095-12.832-16.851-29.192-13.41-41.786-11.748 12.416-8.591 35.614 7.432 52.614 16.453 17.455 40.234 21.76 53.117 9.617 3.412-3.216 5.707-7.269 6.947-11.806-.314.332-.633.661-.969.978z" fill="#cbc4cc"/><circle cx="258.583" cy="381.513" fill="#cbc4cc" r="16"/><path d="m266.648 389.459c-8.833-.261-15.781-7.633-15.52-16.466.067-2.266.608-4.405 1.516-6.333-5.732 2.296-9.86 7.815-10.054 14.381-.261 8.833 6.688 16.205 15.52 16.466 6.566.194 12.319-3.6 14.95-9.187-1.979.792-4.146 1.206-6.412 1.139z" fill="#b5adb6"/><circle cx="187.773" cy="187.837" fill="#cbc4cc" r="15.5"/><circle cx="350.363" cy="305.691" fill="#cbc4cc" r="13.5"/><path d="m353.134 313.46c-7.453-.22-13.316-6.44-13.095-13.893.031-1.048.187-2.062.443-3.034-2.147 2.309-3.513 5.36-3.613 8.76-.22 7.453 5.643 13.673 13.095 13.893 6.385.189 11.852-4.092 13.43-10.008-2.556 2.734-6.225 4.401-10.26 4.282z" fill="#b5adb6"/><path d="m416.662 126.302c-8.054 2.885-11.475 6.306-14.36 14.36-.639 1.784-3.138 1.784-3.777 0-2.885-8.054-6.306-11.475-14.36-14.36-1.784-.639-1.784-3.138 0-3.777 8.054-2.885 11.475-6.306 14.36-14.36.639-1.784 3.138-1.784 3.777 0 2.885 8.054 6.306 11.475 14.36 14.36 1.784.639 1.784 3.138 0 3.777z" fill="#fff"/><g><path d="m405.524 133.662c-2.885-8.054-6.306-11.475-14.36-14.36-.073-.026-.125-.073-.193-.105-1.838 1.281-4.045 2.339-6.807 3.328-1.784.639-1.784 3.138 0 3.777 8.054 2.885 11.475 6.306 14.36 14.36.639 1.784 3.138 1.784 3.777 0 .989-2.762 2.047-4.97 3.328-6.807-.032-.068-.078-.12-.105-.193z" fill="#f3f0f3"/></g><g><path d="m62.662 279.302c-8.054 2.885-11.475 6.306-14.36 14.36-.639 1.784-3.138 1.784-3.777 0-2.885-8.054-6.306-11.475-14.36-14.36-1.784-.639-1.784-3.138 0-3.777 8.054-2.885 11.475-6.306 14.36-14.36.639-1.784 3.138-1.784 3.777 0 2.885 8.054 6.306 11.475 14.36 14.36 1.784.639 1.784 3.138 0 3.777z" fill="#fff"/><g><path d="m50.698 286.836c-2.866-8.001-6.267-11.43-14.208-14.303-1.739 1.133-3.805 2.089-6.326 2.992-1.784.639-1.784 3.138 0 3.777 8.054 2.885 11.475 6.306 14.36 14.36.639 1.784 3.138 1.784 3.777 0 .867-2.419 1.785-4.414 2.859-6.108-.189-.198-.356-.425-.462-.718z" fill="#f3f0f3"/></g></g><path d="m486.098 275.685c-11.449 4.101-16.312 8.964-20.413 20.413-.908 2.536-4.461 2.536-5.369 0-4.101-11.449-8.964-16.312-20.413-20.413-2.536-.908-2.536-4.461 0-5.369 11.449-4.101 16.312-8.964 20.413-20.413.908-2.536 4.461-2.536 5.369 0 4.101 11.449 8.964 16.312 20.413 20.413 2.536.908 2.536 4.46 0 5.369z" fill="#fed402"/><g><path d="m470.315 286.098c-4.101-11.449-8.964-16.312-20.413-20.413-.101-.036-.191-.083-.284-.127-2.62 1.833-5.77 3.345-9.716 4.758-2.536.908-2.536 4.461 0 5.369 11.449 4.101 16.312 8.964 20.413 20.413.908 2.536 4.461 2.536 5.369 0 1.413-3.946 2.925-7.096 4.758-9.716-.043-.093-.09-.183-.127-.284z" fill="#fac600"/></g><path d="m89.641 138.877c-1.007-.008-1.836-.794-1.897-1.8-2.647-43.464-4.436-45.282-47.851-48.633-1.004-.077-1.777-.919-1.769-1.926s.794-1.836 1.8-1.897c43.464-2.647 45.282-4.436 48.633-47.851.077-1.004.919-1.777 1.926-1.769s1.836.794 1.897 1.8c2.647 43.464 4.436 45.282 47.851 48.633 1.004.077 1.777.919 1.769 1.926s-.794 1.836-1.8 1.897c-43.464 2.647-45.282 4.436-48.633 47.851-.077 1.004-.919 1.777-1.926 1.769z" fill="#fea613"/><g><path d="m73.43 79.804c-6.864 2.958-17.283 3.828-33.506 4.816-1.006.061-1.792.891-1.8 1.897-.008 1.007.765 1.849 1.769 1.926 43.415 3.351 45.204 5.169 47.851 48.633.061 1.006.89 1.792 1.897 1.8s1.849-.765 1.926-1.769c1.235-16.005 2.265-26.348 5.247-33.167-2.39-16.168-7.454-21.438-23.384-24.136z" fill="#fe9901"/></g><path d="m435.517 486c-1.007-.008-1.836-.794-1.897-1.8-2.647-43.464-4.436-45.282-47.851-48.633-1.005-.077-1.777-.919-1.769-1.926s.794-1.836 1.8-1.897c43.464-2.647 45.282-4.436 48.633-47.851.077-1.005.919-1.777 1.926-1.769s1.836.794 1.897 1.8c2.647 43.464 4.436 45.282 47.851 48.633 1.005.077 1.777.919 1.769 1.926s-.794 1.836-1.8 1.897c-43.464 2.647-45.282 4.436-48.633 47.851-.077 1.004-.919 1.777-1.926 1.769z" fill="#fea613"/><g><path d="m422.697 425.102c-6.673 4.472-17.737 5.475-36.896 6.642-1.006.061-1.792.891-1.8 1.897-.008 1.007.765 1.849 1.769 1.926 43.415 3.351 45.204 5.169 47.851 48.633.061 1.006.891 1.792 1.897 1.8 1.007.008 1.849-.765 1.926-1.769 1.462-18.942 2.633-29.958 7.098-36.581-2.404-14.673-7.394-19.861-21.845-22.548z" fill="#fe9901"/></g><g fill="#fed402"><path d="m107.607 404.449-6.157 6.157c-.524.524-1.374.524-1.899 0l-6.157-6.157c-.524-.524-.524-1.375 0-1.899l6.157-6.157c.524-.524 1.375-.524 1.899 0l6.157 6.157c.524.525.524 1.375 0 1.899z"/><path d="m176.607 468.449-6.157 6.157c-.524.524-1.375.524-1.899 0l-6.157-6.157c-.524-.524-.524-1.375 0-1.899l6.157-6.157c.524-.524 1.375-.524 1.899 0l6.157 6.157c.524.525.524 1.375 0 1.899z"/><path d="m466.607 172.449-6.157 6.157c-.524.524-1.375.524-1.899 0l-6.157-6.157c-.524-.524-.524-1.375 0-1.899l6.157-6.157c.524-.524 1.375-.524 1.899 0l6.157 6.157c.524.525.524 1.375 0 1.899z"/></g><g><g><path d="m346.542 64.773h-86.545c-1.406 0-2.545-1.14-2.545-2.545v-52.183c0-1.406 1.14-2.545 2.545-2.545h86.545c1.406 0 2.545 1.14 2.545 2.545v52.182c.001 1.406-1.139 2.546-2.545 2.546z" fill="#fea613"/></g><path d="m285 62.227v-52.182c0-1.406 1.14-2.545 2.545-2.545h-27.549c-1.406 0-2.545 1.14-2.545 2.545v52.182c0 1.406 1.14 2.545 2.545 2.545h27.549c-1.405.001-2.545-1.139-2.545-2.545z" fill="#fb8801"/><path d="m255.77.003c-4.105.123-7.27 3.704-7.27 7.811v134.686c0 2.761 2.239 5 5 5h5c2.761 0 5-2.239 5-5v-135c0-4.218-3.482-7.623-7.73-7.497z" fill="#b5adb6"/></g><path d="m192.549 195.482c-8.557-.253-15.288-7.394-15.035-15.951.039-1.324.261-2.596.609-3.813-3.441 2.743-5.703 6.919-5.843 11.662-.253 8.557 6.479 15.698 15.035 15.951 7.233.214 13.437-4.571 15.342-11.222-2.767 2.204-6.294 3.485-10.108 3.373z" fill="#b5adb6"/></g></svg>