<svg id="not_found" xmlns="http://www.w3.org/2000/svg" xmlns:xlink="http://www.w3.org/1999/xlink" width="654.327" height="607.647" viewBox="0 0 654.327 607.647">
  <defs>
    <linearGradient id="linear-gradient" x1="0.5" x2="0.5" y2="1.062" gradientUnits="objectBoundingBox">
      <stop offset="0" stop-color="#a3ff6e"/>
      <stop offset="0.113" stop-color="#d7ffc1" stop-opacity="0.431"/>
      <stop offset="1" stop-opacity="0"/>
    </linearGradient>
  </defs>
  <path id="Path_109" data-name="Path 109" d="M.42,94.139c20.78,0,23.209-.683,32.531,8.2S13.744,134.814-.714,134.814s-42.233-17.074-34.138-29.959S-20.36,94.139.42,94.139Z" transform="translate(301.119 -94.001)" fill="#605959"/>
  <path id="Path_104" data-name="Path 104" d="M132.691,70.245c0,14.774-28.106,23.318-64.748,23.318S0,85.018,0,70.245,132.691,55.471,132.691,70.245Z" transform="translate(234.069 -51.632)" fill="#605959"/>
  <path id="Path_103" data-name="Path 103" d="M129.859,70.008c0,14.458-30.3,19.622-66.162,19.622S0,84.467,0,70.008,129.859,55.55,129.859,70.008Z" transform="translate(235.605 -47.339)" fill="#928c8c"/>
  <ellipse id="Ellipse_33" data-name="Ellipse 33" cx="3.629" cy="2.462" rx="3.629" ry="2.462" transform="translate(239.193 21.282) rotate(25)" fill="#a3ff6e"/>
  <ellipse id="Ellipse_36" data-name="Ellipse 36" cx="3.629" cy="2.462" rx="3.629" ry="2.462" transform="translate(362.888 25.745) rotate(155)" fill="#a3ff6e"/>
  <ellipse id="Ellipse_34" data-name="Ellipse 34" cx="4.536" cy="2.462" rx="4.536" ry="2.462" transform="translate(252.046 16.447) rotate(45)" fill="#a3ff6e"/>
  <ellipse id="Ellipse_35" data-name="Ellipse 35" cx="4.536" cy="2.462" rx="4.536" ry="2.462" transform="translate(351.436 19.929) rotate(135)" fill="#a3ff6e"/>
  <path id="Path_105" data-name="Path 105" d="M4.626,0C7.017,0,8.658,1.837,8.658,3.2S6.413,6.631,4.022,6.631A4.041,4.041,0,0,1,0,3.2C0,1.837,2.235,0,4.626,0Z" transform="matrix(0.358, 0.934, -0.934, 0.358, 269.308, 14.342)" fill="#a3ff6e"/>
  <path id="Path_108" data-name="Path 108" d="M4.626,6.631c2.391,0,4.032-1.837,4.032-3.2S6.413,0,4.022,0A4.041,4.041,0,0,0,0,3.433C0,4.793,2.235,6.631,4.626,6.631Z" transform="translate(336.882 16.718) rotate(111)" fill="#a3ff6e"/>
  <path id="Path_106" data-name="Path 106" d="M4.626,0C7.017,0,8.658,1.837,8.658,3.2S6.413,6.631,4.022,6.631A4.041,4.041,0,0,1,0,3.2C0,1.837,2.235,0,4.626,0Z" transform="translate(292.217 12.75) rotate(82)" fill="#a3ff6e"/>
  <path id="Path_107" data-name="Path 107" d="M4.626,6.631c2.391,0,4.032-1.837,4.032-3.2S6.413,0,4.022,0A4.041,4.041,0,0,0,0,3.433C0,4.793,2.235,6.631,4.626,6.631Z" transform="translate(314.348 13.672) rotate(98)" fill="#a3ff6e"/>
  <g id="Path_110" data-name="Path 110" transform="translate(272.309 31.223)" fill="#605959">
    <path d="M 28.09539222717285 18.6807975769043 C 23.72533226013184 18.6807975769043 19.74528121948242 18.43446731567383 16.26579284667969 17.94863700866699 C 12.67055225372314 17.44664764404297 9.494771957397461 16.67308807373047 6.826682090759277 15.64944744110107 C 4.091032028198242 14.59988784790039 1.804642081260681 13.25499820709229 0.03103208914399147 11.65213775634766 C -1.758721590042114 10.03468418121338 -3.084136962890625 8.101059913635254 -3.90947151184082 5.903792381286621 C -3.869287729263306 4.870751857757568 -3.097073554992676 4.008475780487061 -1.552187919616699 3.270087718963623 C -0.0001779101585270837 2.528297901153564 2.344252109527588 1.933957815170288 5.415992259979248 1.50358784198761 C 11.72790241241455 0.6192278265953064 20.42261123657227 0.4999978244304657 28.09539222717285 0.4999978244304657 C 53.42977905273438 0.4999978244304657 59.13492202758789 3.802488088607788 59.34620666503906 6.647297859191895 C 55.2457275390625 11.74368000030518 51.75023651123047 14.53121852874756 47.31522369384766 16.24885749816895 C 42.85508346557617 17.97621726989746 37.28672027587891 18.6807975769043 28.09539222717285 18.6807975769043 Z" stroke="none"/>
    <path d="M 28.09539604187012 0.9999980926513672 C 20.43984603881836 0.9999980926513672 11.7668571472168 1.118658065795898 5.485355377197266 1.998748779296875 C 2.464397430419922 2.422008514404297 0.1691665649414063 3.001527786254883 -1.336574554443359 3.721207618713379 C -3.123325347900391 4.575197219848633 -3.371204376220703 5.406389236450195 -3.405593872070313 5.822298049926758 C -2.606258392333984 7.90523624420166 -1.337982177734375 9.741002082824707 0.3662757873535156 11.28117752075195 C 2.094017028808594 12.84257793426514 4.327865600585938 14.15520763397217 7.005786895751953 15.18262767791748 C 9.638465881347656 16.19267845153809 12.77724456787109 16.95669746398926 16.33493423461914 17.45343780517578 C 19.79159545898438 17.93607711791992 23.74838638305664 18.1807975769043 28.09539604187012 18.1807975769043 C 37.22035598754883 18.1807975769043 42.73639678955078 17.48599815368652 47.1346435546875 15.78259754180908 C 51.43357467651367 14.11767768859863 54.84045028686523 11.41621208190918 58.82436370849609 6.497721672058105 C 58.76921463012695 6.19189453125 58.63235855102539 5.901614189147949 58.41034698486328 5.617497444152832 C 58.07577514648438 5.189337730407715 57.54971694946289 4.777527809143066 56.84676742553711 4.393487930297852 C 55.38632583618164 3.595627784729004 53.18094635009766 2.926776885986328 50.29187774658203 2.405538558959961 C 45.12253570556641 1.47288703918457 37.65455627441406 0.9999980926513672 28.09539604187012 0.9999980926513672 M 28.09539604187012 -1.9073486328125e-06 C 45.41679382324219 -1.9073486328125e-06 59.8524169921875 1.518697738647461 59.8524169921875 6.815327644348145 C 51.92272567749023 16.72744750976563 45.41679382324219 19.1807975769043 28.09539604187012 19.1807975769043 C 10.77399444580078 19.1807975769043 -0.941864013671875 15.4058780670166 -4.4111328125 5.989317893981934 C -4.4111328125 0.69268798828125 10.77399444580078 -1.9073486328125e-06 28.09539604187012 -1.9073486328125e-06 Z" stroke="none" fill="#707070"/>
  </g>
  <path id="Path_111" data-name="Path 111" d="M303.281,107c104.93.283,296.759,480.651,296.759,480.651H0S198.351,106.722,303.281,107Z" transform="translate(0 -56.223)" fill="url(#linear-gradient)"/>
  <text id="_404" data-name="404" transform="translate(107.327 430.647)" fill="#a3ff6e" font-size="246" font-family="Roboto-Regular, Roboto" opacity="0.79"><tspan x="0" y="0">404</tspan></text>
  <text id="Woops_Seems_like_we_ve_got_lost_There_s_nothing_to_see_around_here_" data-name="Woops! Seems like we&apos;ve got lost!
There&apos;s nothing to see around here!" transform="translate(327.327 541.647)" fill="#b3ff87" font-size="42" font-family="Roboto-Regular, Roboto"><tspan x="-314.682" y="0">Woops! Seems like we&apos;ve got lost!</tspan><tspan x="-326.771" y="55">There&apos;s nothing to see around here!</tspan></text>
</svg>
