<svg id="planetlogo" xmlns="http://www.w3.org/2000/svg" width="490" height="511.999" viewBox="0 0 490 511.999">
  <g id="Group_57" data-name="Group 57" transform="translate(-11 -0.001)">
    <g id="Group_56" data-name="Group 56">
      <circle id="Ellipse_37" data-name="Ellipse 37" cx="245" cy="245" r="245" transform="translate(11 14.5)" fill="#6c7fd8"/>
    </g>
  </g>
  <path id="Path_112" data-name="Path 112" d="M384.172,512a1.914,1.914,0,0,1-1.9-1.8c-2.647-43.464-4.437-45.281-47.852-48.633a1.916,1.916,0,0,1,.031-3.823c43.464-2.646,45.282-4.436,48.633-47.851a1.916,1.916,0,0,1,3.823.03c2.646,43.465,4.436,45.282,47.851,48.634a1.916,1.916,0,0,1-.03,3.823c-43.465,2.646-45.282,4.436-48.634,47.851A1.917,1.917,0,0,1,384.172,512Z" transform="translate(-11 -0.001)" fill="#fea613"/>
  <g id="Group_58" data-name="Group 58" transform="translate(-11 -0.001)">
    <path id="Path_113" data-name="Path 113" d="M367.808,452.991c-6.865,2.906-17.249,3.772-33.354,4.752a1.916,1.916,0,0,0-.031,3.823c43.415,3.352,45.2,5.169,47.852,48.633a1.916,1.916,0,0,0,3.823.031c1.18-15.277,2.171-25.395,4.853-32.214C388.634,461.231,383.749,455.76,367.808,452.991Z" fill="#fe9901"/>
  </g>
  <path id="Path_114" data-name="Path 114" d="M91.695,158.023a2.221,2.221,0,0,1-2.2-2.087c-3.069-50.382-5.142-52.489-55.468-56.374a2.221,2.221,0,0,1,.036-4.432c50.382-3.068,52.489-5.142,56.374-55.468a2.221,2.221,0,0,1,4.432.036c3.069,50.382,5.142,52.489,55.468,56.374a2.221,2.221,0,0,1-.036,4.431c-50.382,3.069-52.489,5.143-56.374,55.469a2.223,2.223,0,0,1-2.233,2.051Z" transform="translate(-11 -0.001)" fill="#fed402"/>
  <g id="Group_59" data-name="Group 59" transform="translate(-11 -0.001)">
    <path id="Path_115" data-name="Path 115" d="M67.942,91.245C60.149,93.36,49.324,94.2,34.064,95.13a2.221,2.221,0,0,0-.036,4.432c50.326,3.885,52.4,5.992,55.468,56.374a2.221,2.221,0,0,0,4.432.036c1.158-15.008,2.16-25.722,4.329-33.453-2.734-21.975-8.642-28.137-30.315-31.274Z" fill="#fac600"/>
  </g>
  <path id="Path_116" data-name="Path 116" d="M392.836,103.976c-8.054,2.885-11.475,6.306-14.36,14.359a2,2,0,0,1-3.776,0c-2.885-8.054-6.307-11.475-14.36-14.359a2,2,0,0,1,0-3.777c8.054-2.885,11.476-6.306,14.36-14.36a2,2,0,0,1,3.776,0c2.886,8.055,6.307,11.476,14.36,14.36A2,2,0,0,1,392.836,103.976Z" transform="translate(-11 -0.001)" fill="#fff"/>
  <g id="Group_60" data-name="Group 60" transform="translate(-11 -0.001)">
    <path id="Path_117" data-name="Path 117" d="M368.751,95.889a1.908,1.908,0,0,1-.189-.1,25.338,25.338,0,0,1-8.224,4.413,2,2,0,0,0,0,3.777c8.054,2.885,11.476,6.306,14.36,14.359a2,2,0,0,0,3.776,0,25.058,25.058,0,0,1,4.534-8.357c-2.862-7.854-6.3-11.237-14.257-14.088Z" fill="#f3f0f3"/>
  </g>
  <path id="Path_118" data-name="Path 118" d="M114.662,388.476c-8.054,2.885-11.475,6.306-14.36,14.359a2,2,0,0,1-3.777,0c-2.885-8.054-6.306-11.475-14.36-14.359a2,2,0,0,1,0-3.777c8.054-2.885,11.475-6.306,14.36-14.36a2,2,0,0,1,3.777,0c2.885,8.055,6.306,11.476,14.36,14.36A2,2,0,0,1,114.662,388.476Z" transform="translate(-11 -0.001)" fill="#fff"/>
  <g id="Group_61" data-name="Group 61" transform="translate(-11 -0.001)">
    <path id="Path_119" data-name="Path 119" d="M104.111,395.249c-2.885-8.054-6.306-11.475-14.36-14.359-.026-.01-.042-.027-.067-.037a26.921,26.921,0,0,1-7.52,3.847,2,2,0,0,0,0,3.777c8.054,2.885,11.475,6.306,14.36,14.359a2,2,0,0,0,3.777,0,26.9,26.9,0,0,1,3.847-7.52c-.01-.025-.027-.042-.037-.067Z" fill="#f3f0f3"/>
  </g>
  <path id="Path_120" data-name="Path 120" d="M450.607,171.449l-6.157,6.157a1.345,1.345,0,0,1-1.9,0l-6.157-6.157a1.345,1.345,0,0,1,0-1.9l6.157-6.156a1.343,1.343,0,0,1,1.9,0l6.157,6.156A1.344,1.344,0,0,1,450.607,171.449Z" transform="translate(-11 -0.001)" fill="#fed402"/>
  <path id="Path_121" data-name="Path 121" d="M199.607,448.449l-6.157,6.157a1.344,1.344,0,0,1-1.9,0l-6.157-6.157a1.342,1.342,0,0,1,0-1.9l6.157-6.157a1.344,1.344,0,0,1,1.9,0l6.157,6.157A1.342,1.342,0,0,1,199.607,448.449Z" transform="translate(-11 -0.001)" fill="#fff"/>
  <path id="Path_122" data-name="Path 122" d="M64.607,258.449l-6.157,6.157a1.345,1.345,0,0,1-1.9,0l-6.157-6.157a1.342,1.342,0,0,1,0-1.9l6.157-6.157a1.344,1.344,0,0,1,1.9,0l6.157,6.157A1.342,1.342,0,0,1,64.607,258.449Z" transform="translate(-11 -0.001)" fill="#fed402"/>
  <path id="Path_123" data-name="Path 123" d="M433.607,372.449l-6.157,6.157a1.345,1.345,0,0,1-1.9,0l-6.157-6.157a1.345,1.345,0,0,1,0-1.9l6.157-6.156a1.344,1.344,0,0,1,1.9,0l6.157,6.156A1.344,1.344,0,0,1,433.607,372.449Z" transform="translate(-11 -0.001)" fill="#fff"/>
  <path id="Path_124" data-name="Path 124" d="M218.607,64.449l-6.157,6.157a1.345,1.345,0,0,1-1.9,0l-6.157-6.157a1.344,1.344,0,0,1,0-1.9l6.157-6.156a1.344,1.344,0,0,1,1.9,0l6.157,6.156A1.344,1.344,0,0,1,218.607,64.449Z" transform="translate(-11 -0.001)" fill="#fff"/>
  <path id="Path_125" data-name="Path 125" d="M359.1,27.685c-11.448,4.1-16.312,8.964-20.413,20.413a2.845,2.845,0,0,1-5.368,0c-4.1-11.449-8.965-16.313-20.413-20.413a2.845,2.845,0,0,1,0-5.369c11.448-4.1,16.312-8.964,20.413-20.413a2.845,2.845,0,0,1,5.368,0c4.1,11.449,8.965,16.312,20.413,20.413A2.845,2.845,0,0,1,359.1,27.685Z" transform="translate(-11 -0.001)" fill="#fed402"/>
  <g id="Group_62" data-name="Group 62" transform="translate(-11 -0.001)">
    <path id="Path_126" data-name="Path 126" d="M343.315,37.1c-4.026-11.239-8.8-16.13-19.807-20.186a38.475,38.475,0,0,1-10.606,5.4,2.845,2.845,0,0,0,0,5.369c11.448,4.1,16.312,8.964,20.413,20.413a2.845,2.845,0,0,0,5.368,0,39.531,39.531,0,0,1,5.08-10.177A2.965,2.965,0,0,1,343.315,37.1Z" fill="#fac600"/>
  </g>
  <path id="Path_127" data-name="Path 127" d="M468.836,283.476c-8.054,2.885-11.475,6.306-14.36,14.359a2,2,0,0,1-3.776,0c-2.885-8.054-6.307-11.475-14.36-14.359a2,2,0,0,1,0-3.777c8.054-2.885,11.476-6.306,14.36-14.36a2,2,0,0,1,3.776,0c2.886,8.055,6.307,11.476,14.36,14.36A2,2,0,0,1,468.836,283.476Z" transform="translate(-11 -0.001)" fill="#fed402"/>
  <g id="Group_63" data-name="Group 63" transform="translate(-11 -0.001)">
    <path id="Path_128" data-name="Path 128" d="M458.285,290.249c-2.885-8.054-6.306-11.475-14.36-14.359-.025-.01-.042-.027-.066-.037a26.943,26.943,0,0,1-7.521,3.847,2,2,0,0,0,0,3.777c8.054,2.885,11.476,6.306,14.36,14.359a2,2,0,0,0,3.776,0,26.869,26.869,0,0,1,3.848-7.52c-.01-.025-.028-.042-.037-.067Z" fill="#fac600"/>
  </g>
  <g id="Group_69" data-name="Group 69" transform="translate(-11 -0.001)">
    <circle id="Ellipse_38" data-name="Ellipse 38" cx="159" cy="159" r="159" transform="translate(97 96)" fill="#242dae"/>
    <g id="Group_64" data-name="Group 64">
      <path id="Path_129" data-name="Path 129" d="M133.808,205.006c1.74,1.24,3.524,2.37,5.337,3.412a157.795,157.795,0,0,1,8.672-31.65c-1.613-.722-3.218-1.483-4.8-2.335A100.312,100.312,0,0,0,125,164.88v0a158.758,158.758,0,0,0-13.682,24.108Z" fill="#0b126a"/>
    </g>
    <path id="Path_131" data-name="Path 131" d="M133.876,234.357c1.021,1.132,2.088,2.2,3.178,3.222-.02-1.025-.053-2.048-.053-3.079a160.011,160.011,0,0,1,2.145-26.081c-1.813-1.043-3.6-2.173-5.337-3.412l-22.491-16.021q-3.148,6.89-5.639,14.122Z" fill="#0b126a"/>
    <g id="Group_66" data-name="Group 66" transform="translate(-102.865 237.747) rotate(-42)">
      <path id="Path_133" data-name="Path 133" d="M325.365,299.69s37.754,53.743,78.724,13.3a159.723,159.723,0,0,0,4.737-102l-27,29.922c-42.4,57.078-84.132-2.351-84.132-2.351C275.511,213.974,278.8,337.751,325.365,299.69Z" fill="#1db80c"/>
      <path id="Path_134" data-name="Path 134" d="M403.814,313.685c.091-.23.183-.459.272-.689C404,313.223,403.9,313.457,403.814,313.685Z" fill="#1db80c"/>
    </g>
    <g id="Group_67" data-name="Group 67">
      <path id="Path_135" data-name="Path 135" d="M97.7,240.115a57.509,57.509,0,0,1,18.914,13.86l28.958,32.094a158.634,158.634,0,0,1-8.532-48.5c-1.084-1.023-2.146-2.081-3.163-3.208l-28.2-31.257A158.307,158.307,0,0,0,97.7,240.123s0-.005,0-.008Z" fill="#0b126a"/>
    </g>
    <path id="Path_137" data-name="Path 137" d="M183.647,358.513a40.721,40.721,0,0,1,5.192-6.559,159.165,159.165,0,0,1-43.292-65.913l-28.933-32.066A57.523,57.523,0,0,0,97.7,240.115c-.456,4.9-.7,9.864-.7,14.885a158.819,158.819,0,0,0,69.079,131.137Z" fill="#0b126a"/>
    <g id="Group_65" data-name="Group 65" transform="matrix(-0.719, -0.695, 0.695, -0.719, 170.103, 504.212)">
      <path id="Path_130" data-name="Path 130" d="M120.092,196.019a28.2,28.2,0,0,0,40.872,1.049,29.571,29.571,0,0,1,42.866,1.1s21.331,30.377,43,1.2l13.8-15.294a80.864,80.864,0,0,0-6.416-15.8c-17.187,13.216-38.133-5.936-38.133-5.936a34.535,34.535,0,0,0-49.157,9.558,32.928,32.928,0,0,1-46.87,9.115l-11.5-8.189q-1.609,3.522-2.882,7.219Z" fill="#1db80c"/>
    </g>
    <path id="Path_139" data-name="Path 139" d="M347.658,384.911a159.177,159.177,0,0,1-158.82-32.957,40.722,40.722,0,0,0-5.192,6.559l-17.568,27.624a158.991,158.991,0,0,0,181.58-1.226Z" fill="#0b126a"/>
    <path id="Path_138" data-name="Path 138" d="M256,414a158.773,158.773,0,0,0,128.473-65.321,40.516,40.516,0,0,0-49.127,15.908,40.513,40.513,0,0,1-59.316,10.037l-33.065-26.147a40.513,40.513,0,0,0-59.316,10.037l-17.568,27.624A158.252,158.252,0,0,0,256,414Z" fill="#1db80c"/>
    <path id="Path_141" data-name="Path 141" d="M29.18,0C45.3,0,58.36,8.283,58.36,18.5S45.3,37,29.18,37,0,28.717,0,18.5,13.064,0,29.18,0Z" transform="translate(121.641 312)" fill="#1db80c"/>
    <path id="Path_142" data-name="Path 142" d="M35.586.084c3.5,11.2,13.655,19.257,18.907,28.01,0,0-9.2,8.906-25.313,8.906S0,28.717,0,18.5,12.477-2.367,35.586.084Z" transform="translate(121.641 312)" fill="#137707"/>
    <g id="Group_68" data-name="Group 68">
      <ellipse id="Ellipse_42" data-name="Ellipse 42" cx="16.042" cy="20.599" rx="16.042" ry="20.599" transform="matrix(-0.291, -0.957, 0.957, -0.291, 357.775, 319.023)" fill="#1db80c"/>
      <path id="Path_140" data-name="Path 140" d="M147.817,176.768a159.515,159.515,0,0,1,56.437-72.139A159.434,159.434,0,0,0,125,164.88a100.357,100.357,0,0,1,18.016,9.553C144.6,175.284,146.2,176.046,147.817,176.768Z" fill="#0b126a"/>
      <ellipse id="Ellipse_41" data-name="Ellipse 41" cx="15.459" cy="23.925" rx="15.459" ry="23.925" transform="matrix(-0.402, -0.916, 0.916, -0.402, 179.529, 176.068)" fill="#242dae"/>
    </g>
    <path id="Path_132" data-name="Path 132" d="M302.933,103.044A159.2,159.2,0,0,0,125,164.881a100.358,100.358,0,0,1,18.016,9.553,71.562,71.562,0,0,0,98.589-32.372,68.212,68.212,0,0,1,61.327-39.018Z" fill="#1db80c"/>
    <g id="Group_71" data-name="Group 71" transform="matrix(-0.719, -0.695, 0.695, -0.719, 170.103, 504.212)">
      <path id="Path_130-2" data-name="Path 130" d="M238.261,208.224c8.692-6.9,22.372-24.148,22.372-24.148a80.864,80.864,0,0,0-6.416-15.8c-25.807,15.011-32.544-13.677-60.565-12.452C221.923,183.939,215.956,176.6,238.261,208.224Z" fill="#137707"/>
    </g>
    <path id="Path_143" data-name="Path 143" d="M256,96a158.816,158.816,0,0,0-131,68.881c10.752,4.417,14.566,8.725,22.4,11.914C161.4,148.9,200.726,103.805,256,96Z" fill="#137707"/>
    <path id="Path_144" data-name="Path 144" d="M256,414a158.773,158.773,0,0,0,128.473-65.321c-52.634,41.51-120.909,73.372-195.716,3.22-5,4-22.676,34.239-22.676,34.239A158.252,158.252,0,0,0,256,414Z" fill="#137707"/>
  </g>
</svg>
