<svg id="recover" xmlns="http://www.w3.org/2000/svg" width="151.361" height="130.157" viewBox="0 0 151.361 130.157">
  <g id="signup" transform="translate(0.067)">
    <path id="back" d="M74.532,130.208A74.5,74.5,0,0,1,0,55.741c0-30.73,84.695-36.863,127.776-21.913.144.05.53.187.913.325,13.6,4.928,22.7,12.191,22.6,21.588C150.888,93.939,115.7,130.208,74.532,130.208Z" transform="translate(0 -0.051)" fill="#23262c"/>
    <g id="universelogo" transform="translate(156.164 143.266) rotate(-179)">
      <g id="Group_6" data-name="Group 6" transform="translate(13.635 98.154)">
        <circle id="Ellipse_2" data-name="Ellipse 2" cx="14.673" cy="14.673" r="14.673" fill="#fea613"/>
      </g>
      <path id="Path_14" data-name="Path 14" d="M9.918,23.607a5.217,5.217,0,0,1-3-9.967A14.677,14.677,0,0,1,18.113.41a14.673,14.673,0,1,0,0,28.527A14.681,14.681,0,0,1,9.918,23.607Z" transform="translate(13.635 98.154)" fill="#fe9901"/>
      <g id="Group_7" data-name="Group 7" transform="translate(108.458 13.785)">
        <circle id="Ellipse_3" data-name="Ellipse 3" cx="4.475" cy="4.475" r="4.475" fill="#97d729"/>
      </g>
      <g id="Group_8" data-name="Group 8" transform="translate(108.275 13.785)">
        <path id="Path_15" data-name="Path 15" d="M3.428,4.475A4.475,4.475,0,0,1,6.189.341a4.475,4.475,0,1,0,0,8.266A4.475,4.475,0,0,1,3.428,4.475Z" fill="#8bc727"/>
      </g>
      <g id="Group_15" data-name="Group 15" transform="translate(28.28 102.835)">
        <circle id="Ellipse_7" data-name="Ellipse 7" cx="5.607" cy="5.607" r="5.607" fill="#fed402"/>
      </g>
      <g id="Group_16" data-name="Group 16" transform="translate(17.491 111.193)">
        <circle id="Ellipse_8" data-name="Ellipse 8" cx="5.218" cy="5.218" r="5.218" fill="#fb8801"/>
      </g>
      <g id="Group_23" data-name="Group 23" transform="translate(65.938 44.045)">
        <path id="Path_24" data-name="Path 24" d="M11.043,6.064c-2.951.963-4.016,2.028-4.979,4.979a.418.418,0,0,1-.8,0C4.306,8.092,3.241,7.027.29,6.064a.418.418,0,0,1,0-.8C3.241,4.306,4.306,3.241,5.269.29a.418.418,0,0,1,.8,0c.963,2.951,2.028,4.017,4.979,4.979A.418.418,0,0,1,11.043,6.064Z" transform="translate(0 0)" fill="#fea613"/>
      </g>
      <g id="Group_24" data-name="Group 24" transform="translate(134.473 41.325)">
        <path id="Path_25" data-name="Path 25" d="M6.91,3.794A4.007,4.007,0,0,0,3.794,6.91a.261.261,0,0,1-.5,0A4.007,4.007,0,0,0,.181,3.794a.261.261,0,0,1,0-.5A4.007,4.007,0,0,0,3.3.181a.261.261,0,0,1,.5,0A4.007,4.007,0,0,0,6.91,3.3.261.261,0,0,1,6.91,3.794Z" transform="translate(0 0)" fill="#fea613"/>
      </g>
      <g id="Group_25" data-name="Group 25" transform="translate(65.938 48.235)">
        <path id="Path_26" data-name="Path 26" d="M3.04,0A8.966,8.966,0,0,1,.29,1.323a.418.418,0,0,0,0,.8C3.241,3.081,4.306,4.146,5.269,7.1a.418.418,0,0,0,.8,0,9.062,9.062,0,0,1,1.3-2.72A6.082,6.082,0,0,0,3.04,0Z" fill="#fe9901"/>
      </g>
      <g id="Group_35" data-name="Group 35" transform="translate(63.777 129.484)">
        <path id="Path_35" data-name="Path 35" d="M11.043,6.064c-2.951.963-4.017,2.028-4.979,4.979a.418.418,0,0,1-.8,0C4.306,8.092,3.241,7.027.29,6.064a.418.418,0,0,1,0-.8C3.241,4.306,4.306,3.241,5.269.29a.418.418,0,0,1,.8,0c.963,2.951,2.028,4.017,4.979,4.979A.418.418,0,0,1,11.043,6.064Z" transform="translate(0 0)" fill="#fff"/>
      </g>
      <g id="Group_36" data-name="Group 36" transform="translate(63.867 133.347)">
        <path id="Path_36" data-name="Path 36" d="M3.012,0A9.05,9.05,0,0,1,.29,1.3a.418.418,0,0,0,0,.8c2.951.963,4.016,2.028,4.979,4.979a.418.418,0,0,0,.8,0A9.174,9.174,0,0,1,7.335,4.393,6.087,6.087,0,0,0,3.012,0Z" transform="translate(0)" fill="#f3f0f3"/>
      </g>
      <g id="Group_37" data-name="Group 37" transform="translate(25.32 116.274)">
        <circle id="Ellipse_10" data-name="Ellipse 10" cx="3.102" cy="3.102" r="3.102" fill="#fed402"/>
      </g>
      <g id="Group_39" data-name="Group 39" transform="translate(102.613 118.704)">
        <path id="Path_38" data-name="Path 38" d="M3.049,1.764,1.764,3.049a.28.28,0,0,1-.4,0L.082,1.764a.28.28,0,0,1,0-.4L1.367.082a.28.28,0,0,1,.4,0L3.049,1.367A.28.28,0,0,1,3.049,1.764Z" transform="translate(0 0)" fill="#fed402"/>
      </g>
      <g id="Group_40" data-name="Group 40" transform="translate(99.239 35.922)">
        <path id="Path_39" data-name="Path 39" d="M3.049,1.764,1.764,3.049a.28.28,0,0,1-.4,0L.082,1.764a.28.28,0,0,1,0-.4L1.367.082a.28.28,0,0,1,.4,0L3.049,1.367A.28.28,0,0,1,3.049,1.764Z" transform="translate(0 0)" fill="#fed402"/>
      </g>
      <g id="Group_42" data-name="Group 42" transform="translate(105.997 125.021)">
        <path id="Path_41" data-name="Path 41" d="M3.049,1.764,1.764,3.049a.28.28,0,0,1-.4,0L.082,1.764a.28.28,0,0,1,0-.4L1.367.082a.28.28,0,0,1,.4,0L3.049,1.367A.28.28,0,0,1,3.049,1.764Z" transform="translate(0 0)" fill="#fff"/>
      </g>
    </g>
  </g>
  <g id="Card" transform="translate(0 8.134)">
    <path id="Path_93" data-name="Path 93" d="M55.035,0H15.717C-.184,0,0,1.01,0,17.247v86.068l51.876-3.33Z" transform="matrix(0.407, -0.914, 0.914, 0.407, 0, 69.235)" fill="#bfd7e2"/>
    <path id="Path_102" data-name="Path 102" d="M55.035,103.315l-39.31.474C-.177,103.79,0,102.305,0,86.068V0L51.876,3.33Z" transform="matrix(-0.407, 0.914, -0.914, -0.407, 125.369, 42.702)" fill="#bfd7e2"/>
    <path id="Path_94" data-name="Path 94" d="M0,99.311H39.759c16.08,0,15.893-.971,15.893-16.579V0Z" transform="matrix(0.407, -0.914, 0.914, 0.407, 35.986, 63.172)" fill="#7a96a2"/>
    <path id="Path_101" data-name="Path 101" d="M0,0H39.759c16.08,0,15.893.975,15.893,16.652v83.1Z" transform="matrix(-0.407, 0.914, -0.914, -0.407, 141.148, 71.182)" fill="#7a96a2"/>
    <path id="Path_95" data-name="Path 95" d="M0,59.344l29.6,66.489c12.142-.416,14.183-.841,14.183-21.228V18.195S43.886,3.434,41.817,0Z" transform="matrix(0.407, -0.914, 0.914, 0.407, 16.194, 41.37)" fill="#97b2be"/>
    <path id="Path_96" data-name="Path 96" d="M0,41.149,27.72,107.9c15.18-.608,16.065-1.1,16.065-21.49V0L38,91.57Z" transform="matrix(0.407, -0.914, 0.914, 0.407, 32.815, 48.771)" fill="#7a96a2"/>
  </g>
  <g id="Pen" transform="translate(4.217 22.371)">
    <path id="Path_100" data-name="Path 100" d="M19.673,4.818C19.673,2.157,18.011,0,15.961,0H1.114C-.936,0-2.6,2.157,19.673,4.818Z" transform="matrix(-0.616, -0.788, 0.788, -0.616, 45.468, 83.48)" fill="#bfd7e2"/>
    <path id="Path_97" data-name="Path 97" d="M88.982,4.959C88.982,2.22,82.343,0,74.152,0H14.83C6.64,0,0,2.22,0,4.959Z" transform="matrix(-0.454, -0.891, 0.891, -0.454, 40.397, 83.787)" fill="#2eafcc"/>
    <path id="Path_98" data-name="Path 98" d="M88.982,0H0C0,2.739,6.64,4.959,14.83,4.959H74.152c8.191,0,14.83-2.22,14.83-4.959Z" transform="matrix(-0.454, -0.891, 0.891, -0.454, 44.815, 81.535)" fill="#105a6b"/>
    <path id="Path_99" data-name="Path 99" d="M22.894,1.974C22.894.884,21.186,0,19.078,0H3.816C1.708,0,0,.884,0,1.974Z" transform="matrix(-0.454, -0.891, 0.891, -0.454, 12.35, 34.685)" fill="#2eafcc"/>
  </g>
</svg>
