<svg id="signup" xmlns="http://www.w3.org/2000/svg" width="160.261" height="154.443" viewBox="0 0 160.261 154.443">
  <path id="back" d="M74.532,130.208A74.5,74.5,0,0,1,0,55.741c0-30.73,84.695-36.863,127.776-21.913.144.05.53.187.913.325,13.6,4.928,22.7,12.191,22.6,21.588C150.888,93.939,115.7,130.208,74.532,130.208Z" transform="translate(8.967 24.234)" fill="#23262c"/>
  <g id="universelogo" transform="matrix(0.485, 0.875, -0.875, 0.485, 105.344, -11.559)">
    <g id="Group_6" data-name="Group 6" transform="translate(36.411 38.748)">
      <circle id="Ellipse_2" data-name="Ellipse 2" cx="14.673" cy="14.673" r="14.673" fill="#fea613"/>
    </g>
    <path id="Path_14" data-name="Path 14" d="M9.918,23.607a5.217,5.217,0,0,1-3-9.967A14.677,14.677,0,0,1,18.113.41a14.673,14.673,0,1,0,0,28.527A14.681,14.681,0,0,1,9.918,23.607Z" transform="translate(36.411 38.748)" fill="#fe9901"/>
    <g id="Group_7" data-name="Group 7" transform="translate(63.156 30.527)">
      <circle id="Ellipse_3" data-name="Ellipse 3" cx="4.475" cy="4.475" r="4.475" fill="#97d729"/>
    </g>
    <g id="Group_8" data-name="Group 8" transform="translate(63.156 30.527)">
      <path id="Path_15" data-name="Path 15" d="M3.428,4.475A4.475,4.475,0,0,1,6.189.341a4.475,4.475,0,1,0,0,8.266A4.475,4.475,0,0,1,3.428,4.475Z" fill="#8bc727"/>
    </g>
    <g id="Group_15" data-name="Group 15" transform="translate(49.885 44.307)">
      <circle id="Ellipse_7" data-name="Ellipse 7" cx="5.607" cy="5.607" r="5.607" fill="#fed402"/>
    </g>
    <g id="Group_16" data-name="Group 16" transform="translate(39.961 52.048)">
      <circle id="Ellipse_8" data-name="Ellipse 8" cx="5.218" cy="5.218" r="5.218" fill="#fb8801"/>
    </g>
    <g id="Group_19" data-name="Group 19" transform="translate(80.555 9.589)">
      <path id="Path_20" data-name="Path 20" d="M11.043,6.064c-2.951.963-4.017,2.028-4.979,4.979a.418.418,0,0,1-.8,0C4.306,8.092,3.241,7.027.29,6.064a.418.418,0,0,1,0-.8C3.241,4.306,4.306,3.241,5.269.29a.418.418,0,0,1,.8,0c.963,2.951,2.028,4.017,4.979,4.979A.418.418,0,0,1,11.043,6.064Z" fill="#fea613"/>
    </g>
    <g id="Group_20" data-name="Group 20" transform="translate(80.555 13.54)">
      <path id="Path_21" data-name="Path 21" d="M3.033,0A8.986,8.986,0,0,1,.29,1.318a.418.418,0,0,0,0,.8c2.951.963,4.017,2.028,4.979,4.979a.418.418,0,0,0,.8,0,9.053,9.053,0,0,1,1.3-2.722A6.083,6.083,0,0,0,3.033,0Z" fill="#fe9901"/>
    </g>
    <g id="Group_21" data-name="Group 21" transform="translate(7.901 38.682)">
      <path id="Path_22" data-name="Path 22" d="M11.043,6.064c-2.951.963-4.017,2.028-4.979,4.979a.418.418,0,0,1-.8,0C4.306,8.092,3.241,7.027.29,6.064a.418.418,0,0,1,0-.8C3.241,4.306,4.306,3.241,5.269.29a.418.418,0,0,1,.8,0c.963,2.951,2.028,4.017,4.979,4.979A.418.418,0,0,1,11.043,6.064Z" fill="#fea613"/>
    </g>
    <g id="Group_23" data-name="Group 23" transform="translate(79.726 45.29)">
      <path id="Path_24" data-name="Path 24" d="M11.043,6.064c-2.951.963-4.016,2.028-4.979,4.979a.418.418,0,0,1-.8,0C4.306,8.092,3.241,7.027.29,6.064a.418.418,0,0,1,0-.8C3.241,4.306,4.306,3.241,5.269.29a.418.418,0,0,1,.8,0c.963,2.951,2.028,4.017,4.979,4.979A.418.418,0,0,1,11.043,6.064Z" fill="#fea613"/>
    </g>
    <g id="Group_24" data-name="Group 24" transform="translate(79.726 45.29)">
      <path id="Path_25" data-name="Path 25" d="M11.043,6.064c-2.951.963-4.016,2.028-4.979,4.979a.418.418,0,0,1-.8,0C4.306,8.092,3.241,7.027.29,6.064a.418.418,0,0,1,0-.8C3.241,4.306,4.306,3.241,5.269.29a.418.418,0,0,1,.8,0c.963,2.951,2.028,4.017,4.979,4.979A.418.418,0,0,1,11.043,6.064Z" fill="#fea613"/>
    </g>
    <g id="Group_25" data-name="Group 25" transform="translate(79.726 49.236)">
      <path id="Path_26" data-name="Path 26" d="M3.04,0A8.966,8.966,0,0,1,.29,1.323a.418.418,0,0,0,0,.8C3.241,3.081,4.306,4.146,5.269,7.1a.418.418,0,0,0,.8,0,9.062,9.062,0,0,1,1.3-2.72A6.082,6.082,0,0,0,3.04,0Z" fill="#fe9901"/>
    </g>
    <g id="Group_28" data-name="Group 28" transform="translate(38.666 91.125)">
      <path id="Path_29" data-name="Path 29" d="M7.062,4.065a4.211,4.211,0,0,0-3,3,.418.418,0,0,1-.788,0,4.211,4.211,0,0,0-3-3,.418.418,0,0,1,0-.788,4.211,4.211,0,0,0,3-3,.418.418,0,0,1,.788,0,4.211,4.211,0,0,0,3,3A.418.418,0,0,1,7.062,4.065Z" fill="#fff"/>
    </g>
    <g id="Group_29" data-name="Group 29" transform="translate(38.666 93.584)">
      <path id="Path_30" data-name="Path 30" d="M4.876,3a4.211,4.211,0,0,0-3-3L1.867,0A5.574,5.574,0,0,1,.279.818a.418.418,0,0,0,0,.788,4.211,4.211,0,0,1,3,3,.418.418,0,0,0,.788,0,5.573,5.573,0,0,1,.818-1.588S4.878,3.008,4.876,3Z" fill="#f3f0f3"/>
    </g>
    <g id="Group_30" data-name="Group 30" transform="translate(47.718 18.61)">
      <path id="Path_31" data-name="Path 31" d="M7.062,4.065a4.211,4.211,0,0,0-3,3,.418.418,0,0,1-.788,0,4.211,4.211,0,0,0-3-3,.418.418,0,0,1,0-.788,4.211,4.211,0,0,0,3-3,.418.418,0,0,1,.788,0,4.211,4.211,0,0,0,3,3A.418.418,0,0,1,7.062,4.065Z" fill="#fff"/>
    </g>
    <g id="Group_32" data-name="Group 32" transform="translate(71.227 26.213)">
      <g id="Group_31" data-name="Group 31">
        <path id="Path_32" data-name="Path 32" d="M1.793.045A.428.428,0,0,1,1.71,0,5.95,5.95,0,0,1,.279.7a.418.418,0,0,0,0,.788,4.211,4.211,0,0,1,3,3,.418.418,0,0,0,.788,0,5.885,5.885,0,0,1,.72-1.458A4.207,4.207,0,0,0,1.793.045Z" fill="#f3f0f3"/>
      </g>
    </g>
    <g id="Group_33" data-name="Group 33" transform="translate(40.156 114.214)">
      <path id="Path_33" data-name="Path 33" d="M10.327,5.7C7.6,6.6,6.6,7.6,5.7,10.327a.417.417,0,0,1-.791,0C4.012,7.6,3.008,6.6.285,5.7a.417.417,0,0,1,0-.791c2.723-.9,3.728-1.9,4.626-4.626a.417.417,0,0,1,.791,0c.9,2.723,1.9,3.727,4.626,4.626A.417.417,0,0,1,10.327,5.7Z" fill="#fea613"/>
    </g>
    <g id="Group_35" data-name="Group 35" transform="translate(68.969 73.387)">
      <path id="Path_35" data-name="Path 35" d="M11.043,6.064c-2.951.963-4.017,2.028-4.979,4.979a.418.418,0,0,1-.8,0C4.306,8.092,3.241,7.027.29,6.064a.418.418,0,0,1,0-.8C3.241,4.306,4.306,3.241,5.269.29a.418.418,0,0,1,.8,0c.963,2.951,2.028,4.017,4.979,4.979A.418.418,0,0,1,11.043,6.064Z" fill="#fff"/>
    </g>
    <g id="Group_36" data-name="Group 36" transform="translate(68.969 77.355)">
      <path id="Path_36" data-name="Path 36" d="M3.012,0A9.05,9.05,0,0,1,.29,1.3a.418.418,0,0,0,0,.8c2.951.963,4.016,2.028,4.979,4.979a.418.418,0,0,0,.8,0A9.174,9.174,0,0,1,7.335,4.393,6.087,6.087,0,0,0,3.012,0Z" fill="#f3f0f3"/>
    </g>
    <g id="Group_37" data-name="Group 37" transform="translate(47.201 57.011)">
      <circle id="Ellipse_10" data-name="Ellipse 10" cx="3.102" cy="3.102" r="3.102" fill="#fed402"/>
    </g>
    <g id="Group_38" data-name="Group 38" transform="translate(25.238 58.217)">
      <path id="Path_37" data-name="Path 37" d="M3.049,1.763,1.764,3.049a.28.28,0,0,1-.4,0L.082,1.763a.28.28,0,0,1,0-.4L1.367.082a.28.28,0,0,1,.4,0L3.049,1.367A.28.28,0,0,1,3.049,1.763Z" fill="#fed402"/>
    </g>
    <g id="Group_39" data-name="Group 39" transform="translate(38.614 69.923)">
      <path id="Path_38" data-name="Path 38" d="M3.049,1.764,1.764,3.049a.28.28,0,0,1-.4,0L.082,1.764a.28.28,0,0,1,0-.4L1.367.082a.28.28,0,0,1,.4,0L3.049,1.367A.28.28,0,0,1,3.049,1.764Z" fill="#fed402"/>
    </g>
    <g id="Group_40" data-name="Group 40" transform="translate(89.906 34.266)">
      <path id="Path_39" data-name="Path 39" d="M3.049,1.764,1.764,3.049a.28.28,0,0,1-.4,0L.082,1.764a.28.28,0,0,1,0-.4L1.367.082a.28.28,0,0,1,.4,0L3.049,1.367A.28.28,0,0,1,3.049,1.764Z" fill="#fed402"/>
    </g>
    <g id="Group_41" data-name="Group 41" transform="translate(68.078 19.568)">
      <path id="Path_40" data-name="Path 40" d="M3.049,1.764,1.764,3.049a.28.28,0,0,1-.4,0L.082,1.764a.28.28,0,0,1,0-.4L1.367.082a.28.28,0,0,1,.4,0L3.049,1.367A.28.28,0,0,1,3.049,1.764Z" fill="#fed402"/>
    </g>
    <g id="Group_42" data-name="Group 42" transform="translate(41.745 75.767)">
      <path id="Path_41" data-name="Path 41" d="M3.049,1.764,1.764,3.049a.28.28,0,0,1-.4,0L.082,1.764a.28.28,0,0,1,0-.4L1.367.082a.28.28,0,0,1,.4,0L3.049,1.367A.28.28,0,0,1,3.049,1.764Z" fill="#fff"/>
    </g>
  </g>
  <g id="astronaut" transform="translate(42.066 39.647)">
    <path id="Path_60" data-name="Path 60" d="M32.28,82.4v5.537a74.432,74.432,0,0,0,22.288,3.4V82.4Z" transform="translate(-13.199 23.46)" fill="#d7ebf4"/>
    <path id="Path_61" data-name="Path 61" d="M54.568,96.808V83.176h-10.9a5.449,5.449,0,1,1,0-10.9h10.9V56H32.28V96.808Z" transform="translate(-13.199 3.603)" fill="#d7ebf4"/>
    <path id="Path_62" data-name="Path 62" d="M45,82.4v8.936a74.433,74.433,0,0,0,22.288-3.4V82.4Z" transform="translate(-3.631 23.46)" fill="#bfd7e2"/>
    <path id="Path_63" data-name="Path 63" d="M55.9,72.278a5.449,5.449,0,1,1,0,10.9H45V96.808H67.288V56H45V72.348Z" transform="translate(-3.631 3.603)" fill="#bfd7e2"/>
    <path id="Path_64" data-name="Path 64" d="M32.28,79.29v5.449H76.855V79.29H32.28Z" transform="translate(-13.199 21.121)" fill="#aac7d1"/>
    <path id="Path_65" data-name="Path 65" d="M68.365,70.739a5.449,5.449,0,0,0-5.449-5.449h-21.8a5.449,5.449,0,0,0-5.449,5.449Z" transform="translate(-10.649 10.59)" fill="#e84505"/>
    <path id="Path_66" data-name="Path 66" d="M68.365,68.4H35.67a5.449,5.449,0,0,0,5.449,5.449h21.8A5.449,5.449,0,0,0,68.365,68.4Z" transform="translate(-10.649 12.93)" fill="#bc350c"/>
    <path id="Path_67" data-name="Path 67" d="M40.471,96.808V56H26.839a5.449,5.449,0,0,0-5.449,5.449V72.3H37.738v5.449H21.39v5.449H37.738v5.449H21.39V98.718a74.151,74.151,0,0,0,19.081,9.146Z" transform="translate(-21.39 3.603)" fill="#bfd7e2"/>
    <path id="Path_68" data-name="Path 68" d="M37.738,76.937V71.47H21.39v5.467H37.738Z" transform="translate(-21.39 15.239)" fill="#d7ebf4"/>
    <path id="Path_69" data-name="Path 69" d="M37.738,70.7V65.25H21.39V70.7H37.738Z" transform="translate(-21.39 10.56)" fill="#d7ebf4"/>
    <path id="Path_70" data-name="Path 70" d="M60.453,89.063V83.6H76.8V78.147H60.453V72.7H76.8V61.379A5.449,5.449,0,0,0,71.352,56H57.72v51.864A74.151,74.151,0,0,0,76.8,98.718V89.063Z" transform="translate(5.936 3.603)" fill="#d7ebf4"/>
    <path id="Path_71" data-name="Path 71" d="M59.28,71.75v5.467H75.628V71.75H59.28Z" transform="translate(7.11 15.449)" fill="#bfd7e2"/>
    <path id="Path_72" data-name="Path 72" d="M59.28,65.53v5.449H75.628V65.53H59.28Z" transform="translate(7.11 10.771)" fill="#bfd7e2"/>
    <path id="Path_73" data-name="Path 73" d="M62.384,56.738a2.874,2.874,0,0,0,2.3-2.891V50.974a1.051,1.051,0,0,1,1.051-1.051h0a1.752,1.752,0,0,0,1.752-1.752V43.264a1.752,1.752,0,0,0-1.752-1.752h0a1.051,1.051,0,0,1-1.051-1.051V37.64a2.874,2.874,0,0,0-2.3-2.874,2.768,2.768,0,0,0-3.224,2.716v16.54a2.768,2.768,0,0,0,3.224,2.716Z" transform="translate(7.019 -12.397)" fill="#d7ebf4"/>
    <path id="Path_74" data-name="Path 74" d="M62.327,41.459A1.507,1.507,0,0,1,63.8,43a1.98,1.98,0,0,0,.385-1.174,1.857,1.857,0,0,0-3.715,0A2,2,0,0,0,60.855,43,1.507,1.507,0,0,1,62.327,41.459Z" transform="translate(8.005 -8.455)" fill="#ffd400"/>
    <path id="Path_75" data-name="Path 75" d="M62.162,43.1a1.752,1.752,0,0,0,1.472-.771,1.472,1.472,0,0,0-2.944,0A1.752,1.752,0,0,0,62.162,43.1Z" transform="translate(8.17 -7.785)" fill="#ffb600"/>
    <path id="Path_76" data-name="Path 76" d="M62.6,44.46a2.4,2.4,0,1,1,2.313-2.453A2.365,2.365,0,0,1,62.6,44.46Zm0-4.188a.727.727,0,1,0,0-.018Z" transform="translate(7.734 -8.687)" fill="#aac7d1"/>
    <path id="Path_77" data-name="Path 77" d="M31.189,56.738a2.874,2.874,0,0,1-2.3-2.891V50.974a1.051,1.051,0,0,0-1.051-1.051h0A1.752,1.752,0,0,1,26.09,48.17V43.264a1.752,1.752,0,0,1,1.752-1.752h0a1.051,1.051,0,0,0,1.051-1.051V37.64a2.874,2.874,0,0,1,2.3-2.874,2.768,2.768,0,0,1,3.224,2.716v16.54a2.768,2.768,0,0,1-3.224,2.716Z" transform="translate(-17.855 -12.397)" fill="#d7ebf4"/>
    <path id="Path_78" data-name="Path 78" d="M29.647,41.459A1.507,1.507,0,0,1,31.119,43a1.98,1.98,0,0,0,.385-1.174,1.857,1.857,0,1,0-3.715,0A2,2,0,0,0,28.175,43,1.507,1.507,0,0,1,29.647,41.459Z" transform="translate(-16.576 -8.455)" fill="#ffd400"/>
    <path id="Path_79" data-name="Path 79" d="M29.482,43.1a1.752,1.752,0,0,0,1.472-.771,1.472,1.472,0,1,0-2.944,0A1.752,1.752,0,0,0,29.482,43.1Z" transform="translate(-16.411 -7.785)" fill="#ffb600"/>
    <path id="Path_80" data-name="Path 80" d="M29.918,44.46a2.4,2.4,0,1,1,2.313-2.453,2.365,2.365,0,0,1-2.313,2.453Zm0-4.188a.727.727,0,1,0,0-.018Z" transform="translate(-16.847 -8.687)" fill="#aac7d1"/>
    <path id="Path_81" data-name="Path 81" d="M38.908,45.07H70.272a6.658,6.658,0,0,1,6.658,6.658V74.506H32.25V51.728a6.658,6.658,0,0,1,6.658-6.658Z" transform="translate(-13.221 -4.619)" fill="#aac7d1"/>
    <path id="Path_82" data-name="Path 82" d="M29.274,50.24a27.562,27.562,0,1,1,55.106,0v11.6c0,13.614-12.265,24.653-27.562,24.653S29.274,75.454,29.274,61.839Z" transform="translate(-15.467 -21.983)" fill="#d7ebf4"/>
    <path id="Path_83" data-name="Path 83" d="M29.27,44.906c0-8.41,12.265-15.226,27.562-15.226S84.393,36.5,84.393,44.906" transform="translate(-15.463 -16.194)" fill="none" stroke="#bfd7e2" stroke-linecap="round" stroke-linejoin="round" stroke-width="1.7"/>
    <path id="Path_84" data-name="Path 84" d="M84.393,43.49c0,8.41-12.265,15.226-27.562,15.226S29.27,51.9,29.27,43.49" transform="translate(-15.463 -5.807)" fill="none" stroke="#bfd7e2" stroke-linecap="round" stroke-linejoin="round" stroke-width="1.7"/>
    <path id="Path_85" data-name="Path 85" d="M83.391,44.683v8.5c0,7.972-12.037,14.42-26.861,14.42S29.67,60.768,29.67,52.8V44.683c0-7.955,12.037-14.4,26.861-14.4S83.391,36.8,83.391,44.683Z" transform="translate(-15.162 -15.743)" fill="#073349"/>
    <path id="Path_86" data-name="Path 86" d="M45,65.683c14.841,0,26.861-6.448,26.861-14.42V47.005C71.633,39.155,59.7,32.83,45.018,32.83Z" transform="translate(-3.631 -13.825)" fill="#073349"/>
    <path id="Path_87" data-name="Path 87" d="M56.516,32.84c-14.578,0-26.405,6.22-26.826,14.017v4.065c0,7.972,12.037,14.806,26.861,14.806Z" transform="translate(-15.147 -13.818)" fill="#105a6b"/>
  </g>
  <g id="stars" transform="translate(26.384 22.101)">
    <circle id="Ellipse_16" data-name="Ellipse 16" cx="0.911" cy="0.911" r="0.911" transform="translate(32.292 0.175)" fill="#91bde5"/>
    <circle id="Ellipse_17" data-name="Ellipse 17" cx="0.753" cy="0.753" r="0.753" transform="translate(0 30.856)" fill="#91bde5"/>
    <circle id="Ellipse_18" data-name="Ellipse 18" cx="0.753" cy="0.753" r="0.753" transform="translate(16.067 20.851)" fill="#91bde5"/>
    <circle id="Ellipse_19" data-name="Ellipse 19" cx="0.578" cy="0.578" r="0.578" transform="translate(36.813 15.787)" fill="#91bde5"/>
    <circle id="Ellipse_20" data-name="Ellipse 20" cx="0.753" cy="0.753" r="0.753" transform="translate(111.473 34.255)" fill="#91bde5"/>
    <circle id="Ellipse_21" data-name="Ellipse 21" cx="0.578" cy="0.578" r="0.578" transform="translate(3.224 74.905)" fill="#91bde5"/>
    <circle id="Ellipse_22" data-name="Ellipse 22" cx="0.753" cy="0.753" r="0.753" transform="translate(98.7 69.736)" fill="#91bde5"/>
    <circle id="Ellipse_23" data-name="Ellipse 23" cx="0.753" cy="0.753" r="0.753" transform="translate(89.606 30.102)" fill="#91bde5"/>
    <circle id="Ellipse_24" data-name="Ellipse 24" cx="0.753" cy="0.753" r="0.753" transform="translate(11.582 64.76)" fill="#91bde5"/>
    <circle id="Ellipse_25" data-name="Ellipse 25" cx="0.753" cy="0.753" r="0.753" transform="translate(112.594 54.51)" fill="#91bde5"/>
    <circle id="Ellipse_26" data-name="Ellipse 26" cx="0.578" cy="0.578" r="0.578" transform="translate(101.398 23.672)" fill="#91bde5"/>
    <circle id="Ellipse_27" data-name="Ellipse 27" cx="0.578" cy="0.578" r="0.578" transform="translate(81.301 7.096)" fill="#91bde5"/>
    <circle id="Ellipse_28" data-name="Ellipse 28" cx="0.543" cy="0.543" r="0.543" transform="translate(57.857)" fill="#91bde5"/>
    <circle id="Ellipse_29" data-name="Ellipse 29" cx="0.946" cy="0.946" r="0.946" transform="translate(4.941 49.166)" fill="#91bde5"/>
  </g>
</svg>
