<svg id="Capa_1" enable-background="new 0 0 512 512" height="512" viewBox="0 0 512 512" width="512" xmlns="http://www.w3.org/2000/svg"><g><g><g><circle cx="256" cy="267" fill="#314dc9" r="245"/><g><path d="m260.704 74.257 16.292 21.676c7.063 9.398 19.977 12.143 30.252 6.43l23.7-13.175c3.424-1.904 7.718.008 8.594 3.826l6.067 26.429c2.63 11.458 13.311 19.218 25.021 18.179l27.01-2.397c3.903-.346 7.047 3.146 6.295 6.991l-5.207 26.611c-2.257 11.537 4.344 22.971 15.464 26.785l25.65 8.796c3.706 1.271 5.158 5.741 2.907 8.947l-15.581 22.193c-6.755 9.622-5.375 22.752 3.233 30.759l19.854 18.468c2.869 2.668 2.377 7.343-.983 9.356l-23.26 13.937c-10.084 6.042-14.164 18.599-9.557 29.414l10.626 24.947c1.535 3.605-.815 7.675-4.704 8.147l-26.918 3.271c-11.67 1.418-20.504 11.23-20.695 22.984l-.44 27.112c-.064 3.917-3.866 6.68-7.611 5.53l-25.921-7.96c-11.238-3.451-23.299 1.919-28.254 12.58l-11.429 24.59c-1.651 3.553-6.249 4.53-9.202 1.956l-20.443-17.815c-8.863-7.724-22.065-7.724-30.928 0l-20.443 17.815c-2.954 2.574-7.551 1.597-9.202-1.956l-11.429-24.59c-4.955-10.661-17.016-16.031-28.254-12.58l-25.921 7.96c-3.745 1.15-7.548-1.612-7.611-5.53l-.44-27.112c-.191-11.754-9.025-21.566-20.695-22.984l-26.918-3.271c-3.889-.473-6.239-4.543-4.704-8.147l10.626-24.947c4.607-10.816.527-23.372-9.557-29.414l-23.26-13.937c-3.361-2.014-3.852-6.688-.983-9.356l19.854-18.468c8.608-8.007 9.988-21.137 3.233-30.759l-15.582-22.191c-2.251-3.207-.799-7.676 2.907-8.947l25.65-8.796c11.12-3.814 17.722-15.247 15.464-26.785l-5.207-26.611c-.752-3.845 2.392-7.338 6.295-6.991l27.01 2.397c11.71 1.039 22.391-6.721 25.021-18.179l6.067-26.429c.877-3.819 5.17-5.73 8.594-3.826l23.7 13.175c10.275 5.712 23.189 2.967 30.252-6.43l16.292-21.676c2.355-3.134 7.055-3.134 9.409-.002z" fill="#fed402"/><circle cx="256" cy="267" fill="#fea613" r="129"/><circle cx="256" cy="267" fill="#fe9901" r="93.495"/><circle cx="256" cy="267" fill="#fb8801" r="57.991"/></g></g></g><path d="m150.836 91.476c-8.054 2.885-11.475 6.306-14.36 14.36-.639 1.784-3.138 1.784-3.777 0-2.885-8.054-6.306-11.475-14.36-14.36-1.784-.639-1.784-3.138 0-3.777 8.054-2.885 11.475-6.306 14.36-14.36.639-1.784 3.138-1.784 3.777 0 2.885 8.054 6.306 11.475 14.36 14.36 1.784.638 1.784 3.137 0 3.777z" fill="#fff"/><path d="m97.836 441.476c-8.054 2.885-11.475 6.306-14.36 14.36-.639 1.784-3.138 1.784-3.777 0-2.885-8.054-6.306-11.475-14.36-14.36-1.784-.639-1.784-3.138 0-3.777 8.054-2.885 11.475-6.306 14.36-14.36.639-1.784 3.138-1.784 3.777 0 2.885 8.054 6.306 11.475 14.36 14.36 1.784.638 1.784 3.137 0 3.777z" fill="#fea613"/><path d="m482.662 320.302c-8.054 2.885-11.475 6.306-14.36 14.36-.639 1.784-3.138 1.784-3.777 0-2.885-8.054-6.306-11.475-14.36-14.36-1.784-.639-1.784-3.138 0-3.777 8.054-2.885 11.475-6.306 14.36-14.36.639-1.784 3.138-1.784 3.777 0 2.885 8.054 6.306 11.475 14.36 14.36 1.784.639 1.784 3.138 0 3.777z" fill="#fea613"/><path d="m394.662 57.476c-8.054 2.885-11.475 6.306-14.36 14.36-.639 1.784-3.138 1.784-3.777 0-2.885-8.054-6.306-11.475-14.36-14.36-1.784-.639-1.784-3.138 0-3.777 8.054-2.885 11.475-6.306 14.36-14.36.639-1.784 3.138-1.784 3.777 0 2.885 8.054 6.306 11.475 14.36 14.36 1.784.638 1.784 3.137 0 3.777z" fill="#fed402"/><path d="m219.5 85c-.824 0-1.508-.638-1.564-1.46-2.454-35.545-3.93-37.021-39.475-39.475-.822-.057-1.46-.74-1.46-1.564s.638-1.508 1.46-1.564c35.545-2.454 37.021-3.93 39.475-39.475.056-.824.74-1.462 1.564-1.462s1.508.638 1.564 1.46c2.454 35.545 3.93 37.021 39.475 39.475.822.057 1.46.74 1.46 1.564s-.638 1.508-1.46 1.564c-35.545 2.454-37.021 3.93-39.475 39.475-.056.824-.74 1.462-1.564 1.462z" fill="#fea613"/><path d="m430.5 482c-.824 0-1.508-.638-1.564-1.46-2.454-35.545-3.93-37.021-39.475-39.475-.822-.057-1.46-.74-1.46-1.564s.638-1.508 1.46-1.564c35.545-2.454 37.021-3.93 39.475-39.475.057-.822.74-1.46 1.564-1.46s1.508.638 1.564 1.46c2.454 35.545 3.93 37.021 39.475 39.475.822.057 1.46.74 1.46 1.564s-.638 1.508-1.46 1.564c-35.545 2.454-37.021 3.93-39.475 39.475-.056.822-.74 1.46-1.564 1.46z" fill="#fea613"/><path d="m51.607 225.449-6.157 6.157c-.524.524-1.375.524-1.899 0l-6.157-6.157c-.524-.524-.524-1.375 0-1.899l6.157-6.157c.524-.524 1.375-.524 1.899 0l6.157 6.157c.524.525.524 1.375 0 1.899z" fill="#fed402"/><path d="m72.607 334.449-6.157 6.157c-.524.524-1.374.524-1.899 0l-6.157-6.157c-.524-.524-.524-1.375 0-1.899l6.157-6.157c.524-.524 1.374-.524 1.899 0l6.157 6.157c.524.525.524 1.375 0 1.899z" fill="#fff"/><path d="m435.607 144.449-6.157 6.157c-.524.524-1.375.524-1.899 0l-6.157-6.157c-.524-.524-.524-1.375 0-1.899l6.157-6.157c.524-.524 1.375-.524 1.899 0l6.157 6.157c.524.525.524 1.375 0 1.899z" fill="#fed402"/><path d="m263.107 472.449-6.157 6.157c-.524.524-1.375.524-1.899 0l-6.157-6.157c-.524-.524-.524-1.375 0-1.899l6.157-6.157c.524-.524 1.375-.524 1.899 0l6.157 6.157c.524.525.524 1.375 0 1.899z" fill="#fed402"/><g><path d="m112 273c0-94.416 76.077-171.05 170.273-171.978-1.968-1.385-3.763-3.074-5.277-5.089l-16.292-21.676c-2.354-3.132-7.054-3.132-9.408 0l-16.292 21.676c-7.063 9.398-19.977 12.143-30.252 6.43l-23.7-13.176c-3.424-1.904-7.718.008-8.594 3.827l-6.067 26.429c-2.63 11.458-13.311 19.218-25.021 18.179l-27.01-2.397c-3.903-.346-7.047 3.146-6.295 6.991l5.207 26.611c2.257 11.537-4.344 22.971-15.464 26.785l-25.65 8.796c-3.706 1.271-5.158 5.741-2.907 8.947l15.581 22.193c6.755 9.622 5.375 22.752-3.233 30.759l-19.854 18.469c-2.869 2.668-2.377 7.343.983 9.356l23.26 13.937c10.084 6.042 14.164 18.599 9.557 29.414l-10.626 24.947c-1.535 3.605.815 7.675 4.704 8.147l26.918 3.271c11.67 1.418 20.504 11.23 20.695 22.984l.44 27.113c.064 3.917 3.866 6.68 7.611 5.53l25.921-7.96c11.238-3.451 23.299 1.919 28.254 12.58l11.429 24.59c1.651 3.553 6.249 4.53 9.202 1.956l20.443-17.815c1.097-.956 2.261-1.792 3.474-2.511-75.705-18.027-132.01-86.091-132.01-167.315z" fill="#fac600"/></g></g></svg>