<svg xmlns="http://www.w3.org/2000/svg" width="165.912" height="173.252" viewBox="0 0 165.912 173.252">
  <g id="mainlogo" transform="translate(165.912 173.252) rotate(180)">
    <g id="universelogo" transform="translate(133.455 36.719) rotate(89)">
      <g id="Group_43" data-name="Group 43" transform="matrix(-0.105, -0.995, 0.995, -0.105, 1.749, 113.594)">
        <path id="Path_42" data-name="Path 42" d="M44.368-24.421c6.688,0,13.182,15.948,24.991,20.768C79.432.458,94.87-6.8,101-2.4c7.711,5.539,1.672,20.641,6.973,28.4,6.1,8.916,22.716,10.853,22.716,21.4,0,15.6-19.646,12.8-25.784,24.2-3.465,6.436,8.848,37.4.851,45.818-7.112,7.492-34.44-7.352-40.838-6.864-5.631.43-22.28,22.782-32.362,20.781-9.478-1.88-12.4-28.1-15.4-30.126C7.461,94.661-8.6,97.543-10.4,89.122c-4.95-4.974,9.573-24.443,9.723-32.673.166-9.156-16.113-17.12-16.113-26.877,0-16.03,23.076-11.179,36.16-19.784C33.1.756,28.935-24.421,44.368-24.421Z" fill="#23262c"/>
      </g>
      <g id="Group_2" data-name="Group 2" transform="translate(49.519 9.025)">
        <path id="Path_3" data-name="Path 3" d="M1.565,90.292a1.565,1.565,0,0,1,0-3.131A42.814,42.814,0,0,0,44.331,44.4,42.832,42.832,0,0,0,12.608,3.078,1.566,1.566,0,1,1,13.417.054,45.967,45.967,0,0,1,47.462,44.4,45.949,45.949,0,0,1,1.565,90.292Z" fill="#4f66d0"/>
      </g>
      <g id="Group_3" data-name="Group 3" transform="translate(5.213 9.025)">
        <path id="Path_4" data-name="Path 4" d="M1.584,2.893a.2.2,0,0,1-.2-.141A8.169,8.169,0,0,0,0,0,45.731,45.731,0,0,0,2.981,14.818,4.25,4.25,0,0,1,5.865,13.6,42.6,42.6,0,0,1,3.136.041,8.261,8.261,0,0,0,1.781,2.752.2.2,0,0,1,1.584,2.893Z" transform="translate(0 45.869)" fill="#4f66d0"/>
        <path id="Path_5" data-name="Path 5" d="M35.861,1.161A1.566,1.566,0,0,0,33.944.054,45.976,45.976,0,0,0,0,41.364a8.394,8.394,0,0,0,1.311-2.655.208.208,0,0,1,.394,0,8.063,8.063,0,0,0,1.424,2.8A42.84,42.84,0,0,1,34.753,3.078,1.565,1.565,0,0,0,35.861,1.161Z" transform="translate(0.076)" fill="#4f66d0"/>
        <path id="Path_6" data-name="Path 6" d="M14.85,12.979A42.945,42.945,0,0,1,2.745,0,4.262,4.262,0,0,1,0,1.513,46.078,46.078,0,0,0,13.051,15.541a1.565,1.565,0,1,0,1.8-2.562Z" transform="translate(6.51 66.443)" fill="#4f66d0"/>
      </g>
      <g id="Group_4" data-name="Group 4" transform="translate(14.898 17.243)">
        <path id="Path_7" data-name="Path 7" d="M2.065,8.859a32.98,32.98,0,0,1,27.3-4.547A1.565,1.565,0,0,0,30.2,1.293,36.113,36.113,0,0,0,0,6.48,4.283,4.283,0,0,1,2.065,8.859Z" transform="translate(15.562)" fill="#6c7fd8"/>
        <path id="Path_8" data-name="Path 8" d="M3.207,11.985A8.947,8.947,0,0,0,4.638,9.07a.209.209,0,0,1,.4,0A9.373,9.373,0,0,0,6.35,11.834,36.188,36.188,0,0,0,2.97.874,1.565,1.565,0,1,0,.162,2.258,33.063,33.063,0,0,1,3.207,11.985Z" transform="translate(65.657 19.332)" fill="#6c7fd8"/>
        <path id="Path_9" data-name="Path 9" d="M16.58,51.115A33.043,33.043,0,0,1,11.649,2.379,4.284,4.284,0,0,1,9.582,0a36.238,36.238,0,0,0,5.312,53.761A5.022,5.022,0,0,1,16.58,51.115Z" transform="translate(0 11.674)" fill="#6c7fd8"/>
        <path id="Path_10" data-name="Path 10" d="M32.538,0A33.135,33.135,0,0,1,12.726,6.611,32.987,32.987,0,0,1,3.993,5.43q-1.381-.379-2.71-.871A4.994,4.994,0,0,1,0,7.423Q1.549,8,3.164,8.449a36.086,36.086,0,0,0,9.561,1.293A36.289,36.289,0,0,0,34.995,2.061,5.535,5.535,0,0,0,32.538,0Z" transform="translate(23.451 62.615)" fill="#6c7fd8"/>
        <path id="Path_11" data-name="Path 11" d="M10.01,3.182a.209.209,0,0,1-.4,0A10.453,10.453,0,0,0,8.541.768,32.965,32.965,0,0,1,7.369,9.076,32.847,32.847,0,0,1,0,22.5a5.39,5.39,0,0,0,2.135,2.305A35.952,35.952,0,0,0,10.389,9.9,36.1,36.1,0,0,0,11.673,0,8.262,8.262,0,0,0,10.01,3.182Z" transform="translate(60.683 35.845)" fill="#6c7fd8"/>
      </g>
      <g id="Group_5" data-name="Group 5" transform="translate(24.631 26.968)">
        <path id="Path_12" data-name="Path 12" d="M22.032,0a4.289,4.289,0,0,1-2.221,2.231A23.208,23.208,0,0,1,24.888,16.74,23.349,23.349,0,0,1,1.565,40.062a1.565,1.565,0,0,0,0,3.131A26.483,26.483,0,0,0,28.019,16.74,26.329,26.329,0,0,0,22.032,0Z" transform="translate(24.888 9.713)" fill="#8795de"/>
        <path id="Path_13" data-name="Path 13" d="M38.929,6.757a4.285,4.285,0,0,1,1.987-2.442A26.44,26.44,0,0,0,0,26.453a1.565,1.565,0,0,0,3.131,0,23.312,23.312,0,0,1,35.8-19.7Z" fill="#8795de"/>
      </g>
      <g id="Group_6" data-name="Group 6" transform="translate(36.411 38.748)">
        <circle id="Ellipse_2" data-name="Ellipse 2" cx="14.673" cy="14.673" r="14.673" fill="#fea613"/>
      </g>
      <path id="Path_14" data-name="Path 14" d="M9.918,23.607a5.217,5.217,0,0,1-3-9.967A14.677,14.677,0,0,1,18.113.41a14.673,14.673,0,1,0,0,28.527A14.681,14.681,0,0,1,9.918,23.607Z" transform="translate(36.411 38.748)" fill="#fe9901"/>
      <g id="Group_7" data-name="Group 7" transform="translate(63.156 30.527)">
        <circle id="Ellipse_3" data-name="Ellipse 3" cx="4.475" cy="4.475" r="4.475" fill="#97d729"/>
      </g>
      <g id="Group_8" data-name="Group 8" transform="translate(63.156 30.527)">
        <path id="Path_15" data-name="Path 15" d="M3.428,4.475A4.475,4.475,0,0,1,6.189.341a4.475,4.475,0,1,0,0,8.266A4.475,4.475,0,0,1,3.428,4.475Z" fill="#8bc727"/>
      </g>
      <g id="Group_9" data-name="Group 9" transform="translate(6.705 68.279)">
        <circle id="Ellipse_4" data-name="Ellipse 4" cx="4.475" cy="4.475" r="4.475" fill="#97d729"/>
      </g>
      <g id="Group_10" data-name="Group 10" transform="translate(6.705 68.279)">
        <path id="Path_16" data-name="Path 16" d="M3.522,4.475A4.475,4.475,0,0,1,6.236.361a4.475,4.475,0,1,0,0,8.227A4.475,4.475,0,0,1,3.522,4.475Z" fill="#8bc727"/>
      </g>
      <g id="Group_11" data-name="Group 11" transform="translate(43.8 0)">
        <circle id="Ellipse_5" data-name="Ellipse 5" cx="7.285" cy="7.285" r="7.285" fill="#925cb4"/>
      </g>
      <g id="Group_12" data-name="Group 12" transform="translate(43.8 0)">
        <path id="Path_17" data-name="Path 17" d="M5.668,7.285A7.287,7.287,0,0,1,10.119.572a7.285,7.285,0,1,0,0,13.425,7.287,7.287,0,0,1-4.45-6.713Z" fill="#814ba2"/>
      </g>
      <g id="Group_13" data-name="Group 13" transform="translate(29.302 78.427)">
        <circle id="Ellipse_6" data-name="Ellipse 6" cx="5.386" cy="5.386" r="5.386" transform="translate(0 0)" fill="#fed402"/>
      </g>
      <g id="Group_14" data-name="Group 14" transform="translate(29.43 78.69)">
        <path id="Path_18" data-name="Path 18" d="M4.175,5.218A5.219,5.219,0,0,1,7.305.435a5.218,5.218,0,1,0,0,9.565A5.219,5.219,0,0,1,4.175,5.218Z" fill="#fac600"/>
      </g>
      <g id="Group_15" data-name="Group 15" transform="translate(49.885 44.307)">
        <circle id="Ellipse_7" data-name="Ellipse 7" cx="5.607" cy="5.607" r="5.607" fill="#fed402"/>
      </g>
      <g id="Group_16" data-name="Group 16" transform="translate(39.961 52.048)">
        <circle id="Ellipse_8" data-name="Ellipse 8" cx="5.218" cy="5.218" r="5.218" fill="#fb8801"/>
      </g>
      <g id="Group_17" data-name="Group 17" transform="translate(24.028 23.034)">
        <circle id="Ellipse_9" data-name="Ellipse 9" cx="4.475" cy="4.475" r="4.475" fill="#fd4755"/>
      </g>
      <g id="Group_18" data-name="Group 18" transform="translate(24.028 23.034)">
        <path id="Path_19" data-name="Path 19" d="M3.341,4.475A4.474,4.474,0,0,1,6.145.326a4.475,4.475,0,1,0,0,8.3A4.473,4.473,0,0,1,3.341,4.475Z" fill="#fb2b3a"/>
      </g>
      <g id="Group_19" data-name="Group 19" transform="translate(80.555 9.589)">
        <path id="Path_20" data-name="Path 20" d="M11.043,6.064c-2.951.963-4.017,2.028-4.979,4.979a.418.418,0,0,1-.8,0C4.306,8.092,3.241,7.027.29,6.064a.418.418,0,0,1,0-.8C3.241,4.306,4.306,3.241,5.269.29a.418.418,0,0,1,.8,0c.963,2.951,2.028,4.017,4.979,4.979A.418.418,0,0,1,11.043,6.064Z" fill="#fea613"/>
      </g>
      <g id="Group_20" data-name="Group 20" transform="translate(80.555 13.54)">
        <path id="Path_21" data-name="Path 21" d="M3.033,0A8.986,8.986,0,0,1,.29,1.318a.418.418,0,0,0,0,.8c2.951.963,4.017,2.028,4.979,4.979a.418.418,0,0,0,.8,0,9.053,9.053,0,0,1,1.3-2.722A6.083,6.083,0,0,0,3.033,0Z" fill="#fe9901"/>
      </g>
      <g id="Group_21" data-name="Group 21" transform="translate(26.668 60.518)">
        <path id="Path_22" data-name="Path 22" d="M11.043,6.064c-2.951.963-4.017,2.028-4.979,4.979a.418.418,0,0,1-.8,0C4.306,8.092,3.241,7.027.29,6.064a.418.418,0,0,1,0-.8C3.241,4.306,4.306,3.241,5.269.29a.418.418,0,0,1,.8,0c.963,2.951,2.028,4.017,4.979,4.979A.418.418,0,0,1,11.043,6.064Z" fill="#fea613"/>
      </g>
      <g id="Group_22" data-name="Group 22" transform="translate(26.668 64.46)">
        <path id="Path_23" data-name="Path 23" d="M3.044,0A8.955,8.955,0,0,1,.29,1.326a.418.418,0,0,0,0,.8C3.241,3.084,4.306,4.149,5.269,7.1a.418.418,0,0,0,.8,0A8.956,8.956,0,0,1,7.391,4.346,6.08,6.08,0,0,0,3.044,0Z" fill="#fe9901"/>
      </g>
      <g id="Group_23" data-name="Group 23" transform="translate(79.726 45.29)">
        <path id="Path_24" data-name="Path 24" d="M11.043,6.064c-2.951.963-4.016,2.028-4.979,4.979a.418.418,0,0,1-.8,0C4.306,8.092,3.241,7.027.29,6.064a.418.418,0,0,1,0-.8C3.241,4.306,4.306,3.241,5.269.29a.418.418,0,0,1,.8,0c.963,2.951,2.028,4.017,4.979,4.979A.418.418,0,0,1,11.043,6.064Z" fill="#fea613"/>
      </g>
      <g id="Group_24" data-name="Group 24" transform="translate(79.726 45.29)">
        <path id="Path_25" data-name="Path 25" d="M11.043,6.064c-2.951.963-4.016,2.028-4.979,4.979a.418.418,0,0,1-.8,0C4.306,8.092,3.241,7.027.29,6.064a.418.418,0,0,1,0-.8C3.241,4.306,4.306,3.241,5.269.29a.418.418,0,0,1,.8,0c.963,2.951,2.028,4.017,4.979,4.979A.418.418,0,0,1,11.043,6.064Z" fill="#fea613"/>
      </g>
      <g id="Group_25" data-name="Group 25" transform="translate(79.726 49.236)">
        <path id="Path_26" data-name="Path 26" d="M3.04,0A8.966,8.966,0,0,1,.29,1.323a.418.418,0,0,0,0,.8C3.241,3.081,4.306,4.146,5.269,7.1a.418.418,0,0,0,.8,0,9.062,9.062,0,0,1,1.3-2.72A6.082,6.082,0,0,0,3.04,0Z" fill="#fe9901"/>
      </g>
      <g id="Group_26" data-name="Group 26" transform="translate(1.491 47.384)">
        <path id="Path_27" data-name="Path 27" d="M10.327,5.7C7.6,6.6,6.6,7.6,5.7,10.327a.417.417,0,0,1-.791,0C4.012,7.6,3.008,6.6.285,5.7a.417.417,0,0,1,0-.791c2.723-.9,3.727-1.9,4.626-4.626a.417.417,0,0,1,.791,0c.9,2.723,1.9,3.727,4.626,4.626A.417.417,0,0,1,10.327,5.7Z" fill="#fea613"/>
      </g>
      <g id="Group_27" data-name="Group 27" transform="translate(1.491 50.96)">
        <path id="Path_28" data-name="Path 28" d="M2.956,0A8.014,8.014,0,0,1,.285,1.335a.417.417,0,0,0,0,.791c2.723.9,3.727,1.9,4.626,4.626a.417.417,0,0,0,.791,0A8.016,8.016,0,0,1,7.036,4.08,5.734,5.734,0,0,0,2.956,0Z" fill="#fe9901"/>
      </g>
      <g id="Group_28" data-name="Group 28" transform="translate(38.666 91.125)">
        <path id="Path_29" data-name="Path 29" d="M7.062,4.065a4.211,4.211,0,0,0-3,3,.418.418,0,0,1-.788,0,4.211,4.211,0,0,0-3-3,.418.418,0,0,1,0-.788,4.211,4.211,0,0,0,3-3,.418.418,0,0,1,.788,0,4.211,4.211,0,0,0,3,3A.418.418,0,0,1,7.062,4.065Z" fill="#fff"/>
      </g>
      <g id="Group_29" data-name="Group 29" transform="translate(38.666 93.584)">
        <path id="Path_30" data-name="Path 30" d="M4.876,3a4.211,4.211,0,0,0-3-3L1.867,0A5.574,5.574,0,0,1,.279.818a.418.418,0,0,0,0,.788,4.211,4.211,0,0,1,3,3,.418.418,0,0,0,.788,0,5.573,5.573,0,0,1,.818-1.588S4.878,3.008,4.876,3Z" fill="#f3f0f3"/>
      </g>
      <g id="Group_30" data-name="Group 30" transform="translate(71.228 23.638)">
        <path id="Path_31" data-name="Path 31" d="M7.062,4.065a4.211,4.211,0,0,0-3,3,.418.418,0,0,1-.788,0,4.211,4.211,0,0,0-3-3,.418.418,0,0,1,0-.788,4.211,4.211,0,0,0,3-3,.418.418,0,0,1,.788,0,4.211,4.211,0,0,0,3,3A.418.418,0,0,1,7.062,4.065Z" fill="#fff"/>
      </g>
      <g id="Group_32" data-name="Group 32" transform="translate(71.227 26.213)">
        <g id="Group_31" data-name="Group 31">
          <path id="Path_32" data-name="Path 32" d="M1.793.045A.428.428,0,0,1,1.71,0,5.95,5.95,0,0,1,.279.7a.418.418,0,0,0,0,.788,4.211,4.211,0,0,1,3,3,.418.418,0,0,0,.788,0,5.885,5.885,0,0,1,.72-1.458A4.207,4.207,0,0,0,1.793.045Z" fill="#f3f0f3"/>
        </g>
      </g>
      <g id="Group_33" data-name="Group 33" transform="translate(28.387 96.256)">
        <path id="Path_33" data-name="Path 33" d="M10.327,5.7C7.6,6.6,6.6,7.6,5.7,10.327a.417.417,0,0,1-.791,0C4.012,7.6,3.008,6.6.285,5.7a.417.417,0,0,1,0-.791c2.723-.9,3.728-1.9,4.626-4.626a.417.417,0,0,1,.791,0c.9,2.723,1.9,3.727,4.626,4.626A.417.417,0,0,1,10.327,5.7Z" fill="#fea613"/>
      </g>
      <g id="Group_34" data-name="Group 34" transform="translate(28.387 99.804)">
        <path id="Path_34" data-name="Path 34" d="M2.992,0A7.932,7.932,0,0,1,.285,1.363a.417.417,0,0,0,0,.791c2.723.9,3.728,1.9,4.626,4.626a.417.417,0,0,0,.791,0A7.931,7.931,0,0,1,7.064,4.072,5.73,5.73,0,0,0,2.992,0Z" fill="#fe9901"/>
      </g>
      <g id="Group_35" data-name="Group 35" transform="translate(68.969 73.387)">
        <path id="Path_35" data-name="Path 35" d="M11.043,6.064c-2.951.963-4.017,2.028-4.979,4.979a.418.418,0,0,1-.8,0C4.306,8.092,3.241,7.027.29,6.064a.418.418,0,0,1,0-.8C3.241,4.306,4.306,3.241,5.269.29a.418.418,0,0,1,.8,0c.963,2.951,2.028,4.017,4.979,4.979A.418.418,0,0,1,11.043,6.064Z" fill="#fff"/>
      </g>
      <g id="Group_36" data-name="Group 36" transform="translate(68.969 77.355)">
        <path id="Path_36" data-name="Path 36" d="M3.012,0A9.05,9.05,0,0,1,.29,1.3a.418.418,0,0,0,0,.8c2.951.963,4.016,2.028,4.979,4.979a.418.418,0,0,0,.8,0A9.174,9.174,0,0,1,7.335,4.393,6.087,6.087,0,0,0,3.012,0Z" fill="#f3f0f3"/>
      </g>
      <g id="Group_37" data-name="Group 37" transform="translate(47.201 57.011)">
        <circle id="Ellipse_10" data-name="Ellipse 10" cx="3.102" cy="3.102" r="3.102" fill="#fed402"/>
      </g>
      <g id="Group_38" data-name="Group 38" transform="translate(25.238 58.217)">
        <path id="Path_37" data-name="Path 37" d="M3.049,1.763,1.764,3.049a.28.28,0,0,1-.4,0L.082,1.763a.28.28,0,0,1,0-.4L1.367.082a.28.28,0,0,1,.4,0L3.049,1.367A.28.28,0,0,1,3.049,1.763Z" fill="#fed402"/>
      </g>
      <g id="Group_39" data-name="Group 39" transform="translate(38.614 69.923)">
        <path id="Path_38" data-name="Path 38" d="M3.049,1.764,1.764,3.049a.28.28,0,0,1-.4,0L.082,1.764a.28.28,0,0,1,0-.4L1.367.082a.28.28,0,0,1,.4,0L3.049,1.367A.28.28,0,0,1,3.049,1.764Z" fill="#fed402"/>
      </g>
      <g id="Group_40" data-name="Group 40" transform="translate(79.316 30.683)">
        <path id="Path_39" data-name="Path 39" d="M3.049,1.764,1.764,3.049a.28.28,0,0,1-.4,0L.082,1.764a.28.28,0,0,1,0-.4L1.367.082a.28.28,0,0,1,.4,0L3.049,1.367A.28.28,0,0,1,3.049,1.764Z" fill="#fed402"/>
      </g>
      <g id="Group_41" data-name="Group 41" transform="translate(65.749 21.707)">
        <path id="Path_40" data-name="Path 40" d="M3.049,1.764,1.764,3.049a.28.28,0,0,1-.4,0L.082,1.764a.28.28,0,0,1,0-.4L1.367.082a.28.28,0,0,1,.4,0L3.049,1.367A.28.28,0,0,1,3.049,1.764Z" fill="#fed402"/>
      </g>
      <g id="Group_42" data-name="Group 42" transform="translate(41.745 75.767)">
        <path id="Path_41" data-name="Path 41" d="M3.049,1.764,1.764,3.049a.28.28,0,0,1-.4,0L.082,1.764a.28.28,0,0,1,0-.4L1.367.082a.28.28,0,0,1,.4,0L3.049,1.367A.28.28,0,0,1,3.049,1.764Z" fill="#fff"/>
      </g>
    </g>
  </g>
</svg>
